<?xml version="1.0" encoding="utf-8" standalone="no"?>
<!DOCTYPE svg PUBLIC "-//W3C//DTD SVG 1.1//EN"
  "http://www.w3.org/Graphics/SVG/1.1/DTD/svg11.dtd">
<svg xmlns:xlink="http://www.w3.org/1999/xlink" width="2332.755312pt" height="537.319375pt" viewBox="0 0 2332.755312 537.319375" xmlns="http://www.w3.org/2000/svg" version="1.1">
 <metadata>
  <rdf:RDF xmlns:dc="http://purl.org/dc/elements/1.1/" xmlns:cc="http://creativecommons.org/ns#" xmlns:rdf="http://www.w3.org/1999/02/22-rdf-syntax-ns#">
   <cc:Work>
    <dc:type rdf:resource="http://purl.org/dc/dcmitype/StillImage"/>
    <dc:date>2025-08-08T01:44:33.449337</dc:date>
    <dc:format>image/svg+xml</dc:format>
    <dc:creator>
     <cc:Agent>
      <dc:title>Matplotlib v3.10.0, https://matplotlib.org/</dc:title>
     </cc:Agent>
    </dc:creator>
   </cc:Work>
  </rdf:RDF>
 </metadata>
 <defs>
  <style type="text/css">*{stroke-linejoin: round; stroke-linecap: butt}</style>
 </defs>
 <g id="figure_1">
  <g id="patch_1">
   <path d="M -0 537.319375 
L 2332.755312 537.319375 
L 2332.755312 0 
L -0 0 
z
" style="fill: #ffffff"/>
  </g>
  <g id="axes_1">
   <g id="patch_2">
    <path d="M 76.930313 468.960625 
L 816.871979 468.960625 
L 816.871979 49.660625 
L 76.930313 49.660625 
z
" style="fill: #ffffff"/>
   </g>
   <g id="matplotlib.axis_1">
    <g id="xtick_1">
     <g id="line2d_1">
      <path d="M 166.620211 468.960625 
L 166.620211 49.660625 
" clip-path="url(#pa6bb80c861)" style="fill: none; stroke-dasharray: 2.96,1.28; stroke-dashoffset: 0; stroke: #cccccc; stroke-opacity: 0.35; stroke-width: 0.8"/>
     </g>
     <g id="text_1">
      <!-- Bare Model -->
      <g style="fill: #262626" transform="translate(130.826149 487.503437) scale(0.14 -0.14)">
       <defs>
        <path id="Helvetica-42" d="M 2213 2650 
Q 2606 2650 2825 2759 
Q 3169 2931 3169 3378 
Q 3169 3828 2803 3984 
Q 2597 4072 2191 4072 
L 1081 4072 
L 1081 2650 
L 2213 2650 
z
M 2422 531 
Q 2994 531 3238 863 
Q 3391 1072 3391 1369 
Q 3391 1869 2944 2050 
Q 2706 2147 2316 2147 
L 1081 2147 
L 1081 531 
L 2422 531 
z
M 472 4591 
L 2444 4591 
Q 3250 4591 3591 4109 
Q 3791 3825 3791 3453 
Q 3791 3019 3544 2741 
Q 3416 2594 3175 2472 
Q 3528 2338 3703 2169 
Q 4013 1869 4013 1341 
Q 4013 897 3734 538 
Q 3319 0 2413 0 
L 472 0 
L 472 4591 
z
" transform="scale(0.015625)"/>
        <path id="Helvetica-61" d="M 844 891 
Q 844 647 1022 506 
Q 1200 366 1444 366 
Q 1741 366 2019 503 
Q 2488 731 2488 1250 
L 2488 1703 
Q 2384 1638 2221 1594 
Q 2059 1550 1903 1531 
L 1563 1488 
Q 1256 1447 1103 1359 
Q 844 1213 844 891 
z
M 2206 2028 
Q 2400 2053 2466 2191 
Q 2503 2266 2503 2406 
Q 2503 2694 2298 2823 
Q 2094 2953 1713 2953 
Q 1272 2953 1088 2716 
Q 984 2584 953 2325 
L 428 2325 
Q 444 2944 830 3186 
Q 1216 3428 1725 3428 
Q 2316 3428 2684 3203 
Q 3050 2978 3050 2503 
L 3050 575 
Q 3050 488 3086 434 
Q 3122 381 3238 381 
Q 3275 381 3322 386 
Q 3369 391 3422 400 
L 3422 -16 
Q 3291 -53 3222 -62 
Q 3153 -72 3034 -72 
Q 2744 -72 2613 134 
Q 2544 244 2516 444 
Q 2344 219 2022 53 
Q 1700 -113 1313 -113 
Q 847 -113 551 170 
Q 256 453 256 878 
Q 256 1344 547 1600 
Q 838 1856 1309 1916 
L 2206 2028 
z
M 1741 3428 
L 1741 3428 
z
" transform="scale(0.015625)"/>
        <path id="Helvetica-72" d="M 428 3347 
L 963 3347 
L 963 2769 
Q 1028 2938 1284 3180 
Q 1541 3422 1875 3422 
Q 1891 3422 1928 3419 
Q 1966 3416 2056 3406 
L 2056 2813 
Q 2006 2822 1964 2825 
Q 1922 2828 1872 2828 
Q 1447 2828 1219 2554 
Q 991 2281 991 1925 
L 991 0 
L 428 0 
L 428 3347 
z
" transform="scale(0.015625)"/>
        <path id="Helvetica-65" d="M 1806 3422 
Q 2163 3422 2497 3255 
Q 2831 3088 3006 2822 
Q 3175 2569 3231 2231 
Q 3281 2000 3281 1494 
L 828 1494 
Q 844 984 1069 676 
Q 1294 369 1766 369 
Q 2206 369 2469 659 
Q 2619 828 2681 1050 
L 3234 1050 
Q 3213 866 3089 639 
Q 2966 413 2813 269 
Q 2556 19 2178 -69 
Q 1975 -119 1719 -119 
Q 1094 -119 659 336 
Q 225 791 225 1609 
Q 225 2416 662 2919 
Q 1100 3422 1806 3422 
z
M 2703 1941 
Q 2669 2306 2544 2525 
Q 2313 2931 1772 2931 
Q 1384 2931 1121 2651 
Q 859 2372 844 1941 
L 2703 1941 
z
M 1753 3428 
L 1753 3428 
z
" transform="scale(0.015625)"/>
        <path id="Helvetica-20" transform="scale(0.015625)"/>
        <path id="Helvetica-4d" d="M 472 4591 
L 1363 4591 
L 2681 709 
L 3991 4591 
L 4872 4591 
L 4872 0 
L 4281 0 
L 4281 2709 
Q 4281 2850 4287 3175 
Q 4294 3500 4294 3872 
L 2984 0 
L 2369 0 
L 1050 3872 
L 1050 3731 
Q 1050 3563 1058 3217 
Q 1066 2872 1066 2709 
L 1066 0 
L 472 0 
L 472 4591 
z
" transform="scale(0.015625)"/>
        <path id="Helvetica-6f" d="M 1741 363 
Q 2300 363 2508 786 
Q 2716 1209 2716 1728 
Q 2716 2197 2566 2491 
Q 2328 2953 1747 2953 
Q 1231 2953 997 2559 
Q 763 2166 763 1609 
Q 763 1075 997 719 
Q 1231 363 1741 363 
z
M 1763 3444 
Q 2409 3444 2856 3012 
Q 3303 2581 3303 1744 
Q 3303 934 2909 406 
Q 2516 -122 1688 -122 
Q 997 -122 590 345 
Q 184 813 184 1600 
Q 184 2444 612 2944 
Q 1041 3444 1763 3444 
z
M 1744 3428 
L 1744 3428 
z
" transform="scale(0.015625)"/>
        <path id="Helvetica-64" d="M 769 1634 
Q 769 1097 997 734 
Q 1225 372 1728 372 
Q 2119 372 2370 708 
Q 2622 1044 2622 1672 
Q 2622 2306 2362 2611 
Q 2103 2916 1722 2916 
Q 1297 2916 1033 2591 
Q 769 2266 769 1634 
z
M 1616 3406 
Q 2000 3406 2259 3244 
Q 2409 3150 2600 2916 
L 2600 4606 
L 3141 4606 
L 3141 0 
L 2634 0 
L 2634 466 
Q 2438 156 2169 18 
Q 1900 -119 1553 -119 
Q 994 -119 584 351 
Q 175 822 175 1603 
Q 175 2334 548 2870 
Q 922 3406 1616 3406 
z
" transform="scale(0.015625)"/>
        <path id="Helvetica-6c" d="M 428 4591 
L 991 4591 
L 991 0 
L 428 0 
L 428 4591 
z
" transform="scale(0.015625)"/>
       </defs>
       <use xlink:href="#Helvetica-42"/>
       <use xlink:href="#Helvetica-61" transform="translate(66.699219 0)"/>
       <use xlink:href="#Helvetica-72" transform="translate(122.314453 0)"/>
       <use xlink:href="#Helvetica-65" transform="translate(155.615234 0)"/>
       <use xlink:href="#Helvetica-20" transform="translate(211.230469 0)"/>
       <use xlink:href="#Helvetica-4d" transform="translate(239.013672 0)"/>
       <use xlink:href="#Helvetica-6f" transform="translate(322.314453 0)"/>
       <use xlink:href="#Helvetica-64" transform="translate(377.929688 0)"/>
       <use xlink:href="#Helvetica-65" transform="translate(433.544922 0)"/>
       <use xlink:href="#Helvetica-6c" transform="translate(489.160156 0)"/>
      </g>
     </g>
    </g>
    <g id="xtick_2">
     <g id="line2d_2">
      <path d="M 306.760679 468.960625 
L 306.760679 49.660625 
" clip-path="url(#pa6bb80c861)" style="fill: none; stroke-dasharray: 2.96,1.28; stroke-dashoffset: 0; stroke: #cccccc; stroke-opacity: 0.35; stroke-width: 0.8"/>
     </g>
     <g id="text_2">
      <!-- NTXent -->
      <g style="fill: #262626" transform="translate(283.030679 487.503437) scale(0.14 -0.14)">
       <defs>
        <path id="Helvetica-4e" d="M 488 4591 
L 1222 4591 
L 3541 872 
L 3541 4591 
L 4131 4591 
L 4131 0 
L 3434 0 
L 1081 3716 
L 1081 0 
L 488 0 
L 488 4591 
z
M 2269 4591 
L 2269 4591 
z
" transform="scale(0.015625)"/>
        <path id="Helvetica-54" d="M 3828 4591 
L 3828 4044 
L 2281 4044 
L 2281 0 
L 1650 0 
L 1650 4044 
L 103 4044 
L 103 4591 
L 3828 4591 
z
" transform="scale(0.015625)"/>
        <path id="Helvetica-58" d="M 881 0 
L 131 0 
L 1775 2353 
L 234 4591 
L 1013 4591 
L 2184 2834 
L 3347 4591 
L 4088 4591 
L 2547 2353 
L 4163 0 
L 3391 0 
L 2153 1888 
L 881 0 
z
" transform="scale(0.015625)"/>
        <path id="Helvetica-6e" d="M 413 3347 
L 947 3347 
L 947 2872 
Q 1184 3166 1450 3294 
Q 1716 3422 2041 3422 
Q 2753 3422 3003 2925 
Q 3141 2653 3141 2147 
L 3141 0 
L 2569 0 
L 2569 2109 
Q 2569 2416 2478 2603 
Q 2328 2916 1934 2916 
Q 1734 2916 1606 2875 
Q 1375 2806 1200 2600 
Q 1059 2434 1017 2257 
Q 975 2081 975 1753 
L 975 0 
L 413 0 
L 413 3347 
z
M 1734 3428 
L 1734 3428 
z
" transform="scale(0.015625)"/>
        <path id="Helvetica-74" d="M 525 4281 
L 1094 4281 
L 1094 3347 
L 1628 3347 
L 1628 2888 
L 1094 2888 
L 1094 703 
Q 1094 528 1213 469 
Q 1278 434 1431 434 
Q 1472 434 1519 436 
Q 1566 438 1628 444 
L 1628 0 
Q 1531 -28 1426 -40 
Q 1322 -53 1200 -53 
Q 806 -53 665 148 
Q 525 350 525 672 
L 525 2888 
L 72 2888 
L 72 3347 
L 525 3347 
L 525 4281 
z
" transform="scale(0.015625)"/>
       </defs>
       <use xlink:href="#Helvetica-4e"/>
       <use xlink:href="#Helvetica-54" transform="translate(72.216797 0)"/>
       <use xlink:href="#Helvetica-58" transform="translate(133.300781 0)"/>
       <use xlink:href="#Helvetica-65" transform="translate(200 0)"/>
       <use xlink:href="#Helvetica-6e" transform="translate(255.615234 0)"/>
       <use xlink:href="#Helvetica-74" transform="translate(311.230469 0)"/>
      </g>
     </g>
    </g>
    <g id="xtick_3">
     <g id="line2d_3">
      <path d="M 446.901146 468.960625 
L 446.901146 49.660625 
" clip-path="url(#pa6bb80c861)" style="fill: none; stroke-dasharray: 2.96,1.28; stroke-dashoffset: 0; stroke: #cccccc; stroke-opacity: 0.35; stroke-width: 0.8"/>
     </g>
     <g id="text_3">
      <!-- NTBXent -->
      <g style="fill: #262626" transform="translate(418.501927 487.503437) scale(0.14 -0.14)">
       <use xlink:href="#Helvetica-4e"/>
       <use xlink:href="#Helvetica-54" transform="translate(72.216797 0)"/>
       <use xlink:href="#Helvetica-42" transform="translate(133.300781 0)"/>
       <use xlink:href="#Helvetica-58" transform="translate(200 0)"/>
       <use xlink:href="#Helvetica-65" transform="translate(266.699219 0)"/>
       <use xlink:href="#Helvetica-6e" transform="translate(322.314453 0)"/>
       <use xlink:href="#Helvetica-74" transform="translate(377.929688 0)"/>
      </g>
     </g>
    </g>
    <g id="xtick_4">
     <g id="line2d_4">
      <path d="M 587.041613 468.960625 
L 587.041613 49.660625 
" clip-path="url(#pa6bb80c861)" style="fill: none; stroke-dasharray: 2.96,1.28; stroke-dashoffset: 0; stroke: #cccccc; stroke-opacity: 0.35; stroke-width: 0.8"/>
     </g>
     <g id="text_4">
      <!-- Triplet -->
      <g style="fill: #262626" transform="translate(567.594738 487.503437) scale(0.14 -0.14)">
       <defs>
        <path id="Helvetica-69" d="M 413 3331 
L 984 3331 
L 984 0 
L 413 0 
L 413 3331 
z
M 413 4591 
L 984 4591 
L 984 3953 
L 413 3953 
L 413 4591 
z
" transform="scale(0.015625)"/>
        <path id="Helvetica-70" d="M 1825 378 
Q 2219 378 2480 708 
Q 2741 1038 2741 1694 
Q 2741 2094 2625 2381 
Q 2406 2934 1825 2934 
Q 1241 2934 1025 2350 
Q 909 2038 909 1556 
Q 909 1169 1025 897 
Q 1244 378 1825 378 
z
M 369 3331 
L 916 3331 
L 916 2888 
Q 1084 3116 1284 3241 
Q 1569 3428 1953 3428 
Q 2522 3428 2919 2992 
Q 3316 2556 3316 1747 
Q 3316 653 2744 184 
Q 2381 -113 1900 -113 
Q 1522 -113 1266 53 
Q 1116 147 931 375 
L 931 -1334 
L 369 -1334 
L 369 3331 
z
" transform="scale(0.015625)"/>
       </defs>
       <use xlink:href="#Helvetica-54"/>
       <use xlink:href="#Helvetica-72" transform="translate(61.083984 0)"/>
       <use xlink:href="#Helvetica-69" transform="translate(94.384766 0)"/>
       <use xlink:href="#Helvetica-70" transform="translate(116.601562 0)"/>
       <use xlink:href="#Helvetica-6c" transform="translate(172.216797 0)"/>
       <use xlink:href="#Helvetica-65" transform="translate(194.433594 0)"/>
       <use xlink:href="#Helvetica-74" transform="translate(250.048828 0)"/>
      </g>
     </g>
    </g>
    <g id="xtick_5">
     <g id="line2d_5">
      <path d="M 727.18208 468.960625 
L 727.18208 49.660625 
" clip-path="url(#pa6bb80c861)" style="fill: none; stroke-dasharray: 2.96,1.28; stroke-dashoffset: 0; stroke: #cccccc; stroke-opacity: 0.35; stroke-width: 0.8"/>
     </g>
     <g id="text_5">
      <!-- Pair -->
      <g style="fill: #262626" transform="translate(714.734111 487.503437) scale(0.14 -0.14)">
       <defs>
        <path id="Helvetica-50" d="M 547 4591 
L 2613 4591 
Q 3225 4591 3600 4245 
Q 3975 3900 3975 3275 
Q 3975 2738 3640 2339 
Q 3306 1941 2613 1941 
L 1169 1941 
L 1169 0 
L 547 0 
L 547 4591 
z
M 3347 3272 
Q 3347 3778 2972 3959 
Q 2766 4056 2406 4056 
L 1169 4056 
L 1169 2466 
L 2406 2466 
Q 2825 2466 3086 2644 
Q 3347 2822 3347 3272 
z
" transform="scale(0.015625)"/>
       </defs>
       <use xlink:href="#Helvetica-50"/>
       <use xlink:href="#Helvetica-61" transform="translate(66.699219 0)"/>
       <use xlink:href="#Helvetica-69" transform="translate(122.314453 0)"/>
       <use xlink:href="#Helvetica-72" transform="translate(144.53125 0)"/>
      </g>
     </g>
    </g>
    <g id="text_6">
     <!-- Loss Type -->
     <g style="fill: #262626" transform="translate(405.384427 515.33375) scale(0.18 -0.18)">
      <defs>
       <path id="Helvetica-4c" d="M 488 4591 
L 1109 4591 
L 1109 547 
L 3434 547 
L 3434 0 
L 488 0 
L 488 4591 
z
" transform="scale(0.015625)"/>
       <path id="Helvetica-73" d="M 747 1050 
Q 772 769 888 619 
Q 1100 347 1625 347 
Q 1938 347 2175 483 
Q 2413 619 2413 903 
Q 2413 1119 2222 1231 
Q 2100 1300 1741 1391 
L 1294 1503 
Q 866 1609 663 1741 
Q 300 1969 300 2372 
Q 300 2847 642 3140 
Q 984 3434 1563 3434 
Q 2319 3434 2653 2991 
Q 2863 2709 2856 2384 
L 2325 2384 
Q 2309 2575 2191 2731 
Q 1997 2953 1519 2953 
Q 1200 2953 1036 2831 
Q 872 2709 872 2509 
Q 872 2291 1088 2159 
Q 1213 2081 1456 2022 
L 1828 1931 
Q 2434 1784 2641 1647 
Q 2969 1431 2969 969 
Q 2969 522 2630 197 
Q 2291 -128 1597 -128 
Q 850 -128 539 211 
Q 228 550 206 1050 
L 747 1050 
z
M 1578 3428 
L 1578 3428 
z
" transform="scale(0.015625)"/>
       <path id="Helvetica-79" d="M 2503 3347 
L 3125 3347 
Q 3006 3025 2597 1878 
Q 2291 1016 2084 472 
Q 1597 -809 1397 -1090 
Q 1197 -1372 709 -1372 
Q 591 -1372 527 -1362 
Q 463 -1353 369 -1328 
L 369 -816 
Q 516 -856 581 -865 
Q 647 -875 697 -875 
Q 853 -875 926 -823 
Q 1000 -772 1050 -697 
Q 1066 -672 1162 -440 
Q 1259 -209 1303 -97 
L 66 3347 
L 703 3347 
L 1600 622 
L 2503 3347 
z
M 1597 3428 
L 1597 3428 
z
" transform="scale(0.015625)"/>
      </defs>
      <use xlink:href="#Helvetica-4c"/>
      <use xlink:href="#Helvetica-6f" transform="translate(55.615234 0)"/>
      <use xlink:href="#Helvetica-73" transform="translate(111.230469 0)"/>
      <use xlink:href="#Helvetica-73" transform="translate(161.230469 0)"/>
      <use xlink:href="#Helvetica-20" transform="translate(211.230469 0)"/>
      <use xlink:href="#Helvetica-54" transform="translate(239.013672 0)"/>
      <use xlink:href="#Helvetica-79" transform="translate(300.097656 0)"/>
      <use xlink:href="#Helvetica-70" transform="translate(350.097656 0)"/>
      <use xlink:href="#Helvetica-65" transform="translate(405.712891 0)"/>
     </g>
    </g>
   </g>
   <g id="matplotlib.axis_2">
    <g id="ytick_1">
     <g id="line2d_6">
      <path d="M 76.930313 439.356074 
L 816.871979 439.356074 
" clip-path="url(#pa6bb80c861)" style="fill: none; stroke-dasharray: 2.96,1.28; stroke-dashoffset: 0; stroke: #cccccc; stroke-opacity: 0.35; stroke-width: 0.8"/>
     </g>
     <g id="text_7">
      <!-- 0.0 -->
      <g style="fill: #262626" transform="translate(50.470313 444.37748) scale(0.14 -0.14)">
       <defs>
        <path id="Helvetica-30" d="M 1731 4475 
Q 2600 4475 2988 3759 
Q 3288 3206 3288 2244 
Q 3288 1331 3016 734 
Q 2622 -122 1728 -122 
Q 922 -122 528 578 
Q 200 1163 200 2147 
Q 200 2909 397 3456 
Q 766 4475 1731 4475 
z
M 1725 391 
Q 2163 391 2422 778 
Q 2681 1166 2681 2222 
Q 2681 2984 2493 3476 
Q 2306 3969 1766 3969 
Q 1269 3969 1039 3501 
Q 809 3034 809 2125 
Q 809 1441 956 1025 
Q 1181 391 1725 391 
z
" transform="scale(0.015625)"/>
        <path id="Helvetica-2e" d="M 547 681 
L 1200 681 
L 1200 0 
L 547 0 
L 547 681 
z
" transform="scale(0.015625)"/>
       </defs>
       <use xlink:href="#Helvetica-30"/>
       <use xlink:href="#Helvetica-2e" transform="translate(55.615234 0)"/>
       <use xlink:href="#Helvetica-30" transform="translate(83.398438 0)"/>
      </g>
     </g>
    </g>
    <g id="ytick_2">
     <g id="line2d_7">
      <path d="M 76.930313 380.146972 
L 816.871979 380.146972 
" clip-path="url(#pa6bb80c861)" style="fill: none; stroke-dasharray: 2.96,1.28; stroke-dashoffset: 0; stroke: #cccccc; stroke-opacity: 0.35; stroke-width: 0.8"/>
     </g>
     <g id="text_8">
      <!-- 0.2 -->
      <g style="fill: #262626" transform="translate(50.470313 385.168379) scale(0.14 -0.14)">
       <defs>
        <path id="Helvetica-32" d="M 200 0 
Q 231 578 439 1006 
Q 647 1434 1250 1784 
L 1850 2131 
Q 2253 2366 2416 2531 
Q 2672 2791 2672 3125 
Q 2672 3516 2437 3745 
Q 2203 3975 1813 3975 
Q 1234 3975 1013 3538 
Q 894 3303 881 2888 
L 309 2888 
Q 319 3472 525 3841 
Q 891 4491 1816 4491 
Q 2584 4491 2939 4075 
Q 3294 3659 3294 3150 
Q 3294 2613 2916 2231 
Q 2697 2009 2131 1694 
L 1703 1456 
Q 1397 1288 1222 1134 
Q 909 863 828 531 
L 3272 531 
L 3272 0 
L 200 0 
z
" transform="scale(0.015625)"/>
       </defs>
       <use xlink:href="#Helvetica-30"/>
       <use xlink:href="#Helvetica-2e" transform="translate(55.615234 0)"/>
       <use xlink:href="#Helvetica-32" transform="translate(83.398438 0)"/>
      </g>
     </g>
    </g>
    <g id="ytick_3">
     <g id="line2d_8">
      <path d="M 76.930313 320.93787 
L 816.871979 320.93787 
" clip-path="url(#pa6bb80c861)" style="fill: none; stroke-dasharray: 2.96,1.28; stroke-dashoffset: 0; stroke: #cccccc; stroke-opacity: 0.35; stroke-width: 0.8"/>
     </g>
     <g id="text_9">
      <!-- 0.4 -->
      <g style="fill: #262626" transform="translate(50.470313 325.959277) scale(0.14 -0.14)">
       <defs>
        <path id="Helvetica-34" d="M 2116 1584 
L 2116 3613 
L 681 1584 
L 2116 1584 
z
M 2125 0 
L 2125 1094 
L 163 1094 
L 163 1644 
L 2213 4488 
L 2688 4488 
L 2688 1584 
L 3347 1584 
L 3347 1094 
L 2688 1094 
L 2688 0 
L 2125 0 
z
" transform="scale(0.015625)"/>
       </defs>
       <use xlink:href="#Helvetica-30"/>
       <use xlink:href="#Helvetica-2e" transform="translate(55.615234 0)"/>
       <use xlink:href="#Helvetica-34" transform="translate(83.398438 0)"/>
      </g>
     </g>
    </g>
    <g id="ytick_4">
     <g id="line2d_9">
      <path d="M 76.930313 261.728769 
L 816.871979 261.728769 
" clip-path="url(#pa6bb80c861)" style="fill: none; stroke-dasharray: 2.96,1.28; stroke-dashoffset: 0; stroke: #cccccc; stroke-opacity: 0.35; stroke-width: 0.8"/>
     </g>
     <g id="text_10">
      <!-- 0.6 -->
      <g style="fill: #262626" transform="translate(50.470313 266.750175) scale(0.14 -0.14)">
       <defs>
        <path id="Helvetica-36" d="M 1872 4494 
Q 2622 4494 2917 4105 
Q 3213 3716 3213 3303 
L 2656 3303 
Q 2606 3569 2497 3719 
Q 2294 4000 1881 4000 
Q 1409 4000 1131 3564 
Q 853 3128 822 2316 
Q 1016 2600 1309 2741 
Q 1578 2866 1909 2866 
Q 2472 2866 2890 2506 
Q 3309 2147 3309 1434 
Q 3309 825 2912 354 
Q 2516 -116 1781 -116 
Q 1153 -116 697 361 
Q 241 838 241 1966 
Q 241 2800 444 3381 
Q 834 4494 1872 4494 
z
M 1831 384 
Q 2275 384 2495 682 
Q 2716 981 2716 1388 
Q 2716 1731 2519 2042 
Q 2322 2353 1803 2353 
Q 1441 2353 1167 2112 
Q 894 1872 894 1388 
Q 894 963 1142 673 
Q 1391 384 1831 384 
z
" transform="scale(0.015625)"/>
       </defs>
       <use xlink:href="#Helvetica-30"/>
       <use xlink:href="#Helvetica-2e" transform="translate(55.615234 0)"/>
       <use xlink:href="#Helvetica-36" transform="translate(83.398438 0)"/>
      </g>
     </g>
    </g>
    <g id="ytick_5">
     <g id="line2d_10">
      <path d="M 76.930313 202.519667 
L 816.871979 202.519667 
" clip-path="url(#pa6bb80c861)" style="fill: none; stroke-dasharray: 2.96,1.28; stroke-dashoffset: 0; stroke: #cccccc; stroke-opacity: 0.35; stroke-width: 0.8"/>
     </g>
     <g id="text_11">
      <!-- 0.8 -->
      <g style="fill: #262626" transform="translate(50.470313 207.541073) scale(0.14 -0.14)">
       <defs>
        <path id="Helvetica-38" d="M 1741 2600 
Q 2113 2600 2322 2808 
Q 2531 3016 2531 3303 
Q 2531 3553 2331 3762 
Q 2131 3972 1722 3972 
Q 1316 3972 1134 3762 
Q 953 3553 953 3272 
Q 953 2956 1187 2778 
Q 1422 2600 1741 2600 
z
M 1775 384 
Q 2166 384 2423 595 
Q 2681 806 2681 1225 
Q 2681 1659 2415 1884 
Q 2150 2109 1734 2109 
Q 1331 2109 1076 1879 
Q 822 1650 822 1244 
Q 822 894 1055 639 
Q 1288 384 1775 384 
z
M 975 2384 
Q 741 2484 609 2619 
Q 363 2869 363 3269 
Q 363 3769 725 4128 
Q 1088 4488 1753 4488 
Q 2397 4488 2762 4148 
Q 3128 3809 3128 3356 
Q 3128 2938 2916 2678 
Q 2797 2531 2547 2391 
Q 2825 2263 2984 2097 
Q 3281 1784 3281 1284 
Q 3281 694 2884 283 
Q 2488 -128 1763 -128 
Q 1109 -128 657 226 
Q 206 581 206 1256 
Q 206 1653 400 1942 
Q 594 2231 975 2384 
z
" transform="scale(0.015625)"/>
       </defs>
       <use xlink:href="#Helvetica-30"/>
       <use xlink:href="#Helvetica-2e" transform="translate(55.615234 0)"/>
       <use xlink:href="#Helvetica-38" transform="translate(83.398438 0)"/>
      </g>
     </g>
    </g>
    <g id="ytick_6">
     <g id="line2d_11">
      <path d="M 76.930313 143.310565 
L 816.871979 143.310565 
" clip-path="url(#pa6bb80c861)" style="fill: none; stroke-dasharray: 2.96,1.28; stroke-dashoffset: 0; stroke: #cccccc; stroke-opacity: 0.35; stroke-width: 0.8"/>
     </g>
     <g id="text_12">
      <!-- 1.0 -->
      <g style="fill: #262626" transform="translate(50.470313 148.331971) scale(0.14 -0.14)">
       <defs>
        <path id="Helvetica-31" d="M 613 3169 
L 613 3600 
Q 1222 3659 1462 3798 
Q 1703 3938 1822 4456 
L 2266 4456 
L 2266 0 
L 1666 0 
L 1666 3169 
L 613 3169 
z
" transform="scale(0.015625)"/>
       </defs>
       <use xlink:href="#Helvetica-31"/>
       <use xlink:href="#Helvetica-2e" transform="translate(55.615234 0)"/>
       <use xlink:href="#Helvetica-30" transform="translate(83.398438 0)"/>
      </g>
     </g>
    </g>
    <g id="ytick_7">
     <g id="line2d_12">
      <path d="M 76.930313 84.101463 
L 816.871979 84.101463 
" clip-path="url(#pa6bb80c861)" style="fill: none; stroke-dasharray: 2.96,1.28; stroke-dashoffset: 0; stroke: #cccccc; stroke-opacity: 0.35; stroke-width: 0.8"/>
     </g>
     <g id="text_13">
      <!-- 1.2 -->
      <g style="fill: #262626" transform="translate(50.470313 89.122869) scale(0.14 -0.14)">
       <use xlink:href="#Helvetica-31"/>
       <use xlink:href="#Helvetica-2e" transform="translate(55.615234 0)"/>
       <use xlink:href="#Helvetica-32" transform="translate(83.398438 0)"/>
      </g>
     </g>
    </g>
    <g id="text_14">
     <!-- Validation $\Delta sim$ -->
     <g style="fill: #262626" transform="translate(33.050938 352.000625) rotate(-90) scale(0.26 -0.26)">
      <defs>
       <path id="Helvetica-56" d="M 850 4591 
L 2169 681 
L 3472 4591 
L 4169 4591 
L 2494 0 
L 1834 0 
L 163 4591 
L 850 4591 
z
" transform="scale(0.015625)"/>
       <path id="DejaVuSans-394" d="M 2188 4044 
L 906 525 
L 3472 525 
L 2188 4044 
z
M 50 0 
L 1831 4666 
L 2547 4666 
L 4325 0 
L 50 0 
z
" transform="scale(0.015625)"/>
       <path id="DejaVuSans-Oblique-73" d="M 3200 3397 
L 3091 2853 
Q 2863 2978 2609 3040 
Q 2356 3103 2088 3103 
Q 1634 3103 1373 2948 
Q 1113 2794 1113 2528 
Q 1113 2219 1719 2053 
Q 1766 2041 1788 2034 
L 1972 1978 
Q 2547 1819 2739 1644 
Q 2931 1469 2931 1166 
Q 2931 609 2489 259 
Q 2047 -91 1331 -91 
Q 1053 -91 747 -37 
Q 441 16 72 128 
L 184 722 
Q 500 559 806 475 
Q 1113 391 1394 391 
Q 1816 391 2080 572 
Q 2344 753 2344 1031 
Q 2344 1331 1650 1516 
L 1591 1531 
L 1394 1581 
Q 956 1697 753 1886 
Q 550 2075 550 2369 
Q 550 2928 970 3256 
Q 1391 3584 2113 3584 
Q 2397 3584 2667 3537 
Q 2938 3491 3200 3397 
z
" transform="scale(0.015625)"/>
       <path id="DejaVuSans-Oblique-69" d="M 1172 4863 
L 1747 4863 
L 1606 4134 
L 1031 4134 
L 1172 4863 
z
M 909 3500 
L 1484 3500 
L 800 0 
L 225 0 
L 909 3500 
z
" transform="scale(0.015625)"/>
       <path id="DejaVuSans-Oblique-6d" d="M 5747 2113 
L 5338 0 
L 4763 0 
L 5166 2094 
Q 5191 2228 5203 2325 
Q 5216 2422 5216 2491 
Q 5216 2772 5059 2928 
Q 4903 3084 4622 3084 
Q 4203 3084 3875 2770 
Q 3547 2456 3450 1953 
L 3066 0 
L 2491 0 
L 2900 2094 
Q 2925 2209 2937 2307 
Q 2950 2406 2950 2484 
Q 2950 2769 2794 2926 
Q 2638 3084 2363 3084 
Q 1938 3084 1609 2770 
Q 1281 2456 1184 1953 
L 800 0 
L 225 0 
L 909 3500 
L 1484 3500 
L 1375 2956 
Q 1609 3263 1923 3423 
Q 2238 3584 2597 3584 
Q 2978 3584 3223 3384 
Q 3469 3184 3519 2828 
Q 3781 3197 4126 3390 
Q 4472 3584 4856 3584 
Q 5306 3584 5551 3325 
Q 5797 3066 5797 2591 
Q 5797 2488 5784 2364 
Q 5772 2241 5747 2113 
z
" transform="scale(0.015625)"/>
      </defs>
      <use xlink:href="#Helvetica-56" transform="translate(0 0.015625)"/>
      <use xlink:href="#Helvetica-61" transform="translate(66.699219 0.015625)"/>
      <use xlink:href="#Helvetica-6c" transform="translate(122.314453 0.015625)"/>
      <use xlink:href="#Helvetica-69" transform="translate(144.53125 0.015625)"/>
      <use xlink:href="#Helvetica-64" transform="translate(166.748047 0.015625)"/>
      <use xlink:href="#Helvetica-61" transform="translate(222.363281 0.015625)"/>
      <use xlink:href="#Helvetica-74" transform="translate(277.978516 0.015625)"/>
      <use xlink:href="#Helvetica-69" transform="translate(305.761719 0.015625)"/>
      <use xlink:href="#Helvetica-6f" transform="translate(327.978516 0.015625)"/>
      <use xlink:href="#Helvetica-6e" transform="translate(383.59375 0.015625)"/>
      <use xlink:href="#Helvetica-20" transform="translate(439.208984 0.015625)"/>
      <use xlink:href="#DejaVuSans-394" transform="translate(466.992188 0.015625)"/>
      <use xlink:href="#DejaVuSans-Oblique-73" transform="translate(535.400391 0.015625)"/>
      <use xlink:href="#DejaVuSans-Oblique-69" transform="translate(587.5 0.015625)"/>
      <use xlink:href="#DejaVuSans-Oblique-6d" transform="translate(615.283203 0.015625)"/>
     </g>
    </g>
   </g>
   <g id="patch_3">
    <path d="M 76.930313 468.960625 
L 76.930313 49.660625 
" style="fill: none; stroke: #262626; stroke-width: 2; stroke-linejoin: miter; stroke-linecap: square"/>
   </g>
   <g id="patch_4">
    <path d="M 816.871979 468.960625 
L 816.871979 49.660625 
" style="fill: none; stroke: #262626; stroke-width: 2; stroke-linejoin: miter; stroke-linecap: square"/>
   </g>
   <g id="patch_5">
    <path d="M 76.930313 468.960625 
L 816.871979 468.960625 
" style="fill: none; stroke: #262626; stroke-width: 2; stroke-linejoin: miter; stroke-linecap: square"/>
   </g>
   <g id="patch_6">
    <path d="M 76.930313 49.660625 
L 816.871979 49.660625 
" style="fill: none; stroke: #262626; stroke-width: 2; stroke-linejoin: miter; stroke-linecap: square"/>
   </g>
   <g id="text_15">
    <!-- ModernBERT -->
    <g style="fill: #262626" transform="translate(358.241771 34.660625) scale(0.28 -0.28)">
     <defs>
      <path id="Helvetica-Bold-4d" d="M 3541 4606 
L 4925 4606 
L 4925 0 
L 4028 0 
L 4028 3116 
Q 4028 3250 4031 3492 
Q 4034 3734 4034 3866 
L 3163 0 
L 2228 0 
L 1363 3866 
Q 1363 3734 1366 3492 
Q 1369 3250 1369 3116 
L 1369 0 
L 472 0 
L 472 4606 
L 1872 4606 
L 2709 984 
L 3541 4606 
z
" transform="scale(0.015625)"/>
      <path id="Helvetica-Bold-6f" d="M 1944 628 
Q 2334 628 2543 906 
Q 2753 1184 2753 1697 
Q 2753 2209 2543 2486 
Q 2334 2763 1944 2763 
Q 1553 2763 1342 2486 
Q 1131 2209 1131 1697 
Q 1131 1184 1342 906 
Q 1553 628 1944 628 
z
M 3688 1697 
Q 3688 947 3256 414 
Q 2825 -119 1947 -119 
Q 1069 -119 637 414 
Q 206 947 206 1697 
Q 206 2434 637 2975 
Q 1069 3516 1947 3516 
Q 2825 3516 3256 2975 
Q 3688 2434 3688 1697 
z
M 1947 3497 
L 1947 3497 
z
" transform="scale(0.015625)"/>
      <path id="Helvetica-Bold-64" d="M 1672 3488 
Q 1981 3488 2222 3352 
Q 2463 3216 2613 2975 
L 2613 4600 
L 3516 4600 
L 3516 0 
L 2650 0 
L 2650 472 
Q 2459 169 2215 31 
Q 1972 -106 1609 -106 
Q 1013 -106 605 376 
Q 197 859 197 1616 
Q 197 2488 598 2988 
Q 1000 3488 1672 3488 
z
M 1866 644 
Q 2244 644 2441 925 
Q 2638 1206 2638 1653 
Q 2638 2278 2322 2547 
Q 2128 2709 1872 2709 
Q 1481 2709 1298 2414 
Q 1116 2119 1116 1681 
Q 1116 1209 1302 926 
Q 1488 644 1866 644 
z
" transform="scale(0.015625)"/>
      <path id="Helvetica-Bold-65" d="M 1759 2763 
Q 1450 2763 1279 2569 
Q 1109 2375 1066 2044 
L 2450 2044 
Q 2428 2397 2236 2580 
Q 2044 2763 1759 2763 
z
M 1759 3497 
Q 2184 3497 2525 3337 
Q 2866 3178 3088 2834 
Q 3288 2531 3347 2131 
Q 3381 1897 3375 1456 
L 1044 1456 
Q 1063 944 1366 738 
Q 1550 609 1809 609 
Q 2084 609 2256 766 
Q 2350 850 2422 1000 
L 3331 1000 
Q 3297 697 3016 384 
Q 2578 -113 1791 -113 
Q 1141 -113 644 306 
Q 147 725 147 1669 
Q 147 2553 595 3025 
Q 1044 3497 1759 3497 
z
M 1822 3497 
L 1822 3497 
z
" transform="scale(0.015625)"/>
      <path id="Helvetica-Bold-72" d="M 2266 3488 
Q 2291 3488 2308 3486 
Q 2325 3484 2384 3481 
L 2384 2569 
Q 2300 2578 2234 2581 
Q 2169 2584 2128 2584 
Q 1591 2584 1406 2234 
Q 1303 2038 1303 1628 
L 1303 0 
L 406 0 
L 406 3406 
L 1256 3406 
L 1256 2813 
Q 1463 3153 1616 3278 
Q 1866 3488 2266 3488 
z
" transform="scale(0.015625)"/>
      <path id="Helvetica-Bold-6e" d="M 2303 3488 
Q 2831 3488 3167 3211 
Q 3503 2934 3503 2294 
L 3503 0 
L 2591 0 
L 2591 2072 
Q 2591 2341 2519 2484 
Q 2388 2747 2019 2747 
Q 1566 2747 1397 2363 
Q 1309 2159 1309 1844 
L 1309 0 
L 422 0 
L 422 3400 
L 1281 3400 
L 1281 2903 
Q 1453 3166 1606 3281 
Q 1881 3488 2303 3488 
z
M 1975 3497 
L 1975 3497 
z
" transform="scale(0.015625)"/>
      <path id="Helvetica-Bold-42" d="M 1422 3806 
L 1422 2791 
L 2553 2791 
Q 2856 2791 3045 2905 
Q 3234 3019 3234 3309 
Q 3234 3631 2984 3734 
Q 2769 3806 2434 3806 
L 1422 3806 
z
M 1422 2028 
L 1422 800 
L 2553 800 
Q 2856 800 3025 881 
Q 3331 1031 3331 1456 
Q 3331 1816 3034 1950 
Q 2869 2025 2569 2028 
L 1422 2028 
z
M 2741 4606 
Q 3588 4594 3941 4116 
Q 4153 3822 4153 3413 
Q 4153 2991 3941 2734 
Q 3822 2591 3591 2472 
Q 3944 2344 4123 2066 
Q 4303 1788 4303 1391 
Q 4303 981 4097 656 
Q 3966 441 3769 294 
Q 3547 125 3245 62 
Q 2944 0 2591 0 
L 503 0 
L 503 4606 
L 2741 4606 
z
" transform="scale(0.015625)"/>
      <path id="Helvetica-Bold-45" d="M 3894 3791 
L 1456 3791 
L 1456 2813 
L 3694 2813 
L 3694 2013 
L 1456 2013 
L 1456 828 
L 4006 828 
L 4006 0 
L 516 0 
L 516 4606 
L 3894 4606 
L 3894 3791 
z
" transform="scale(0.015625)"/>
      <path id="Helvetica-Bold-52" d="M 1450 3806 
L 1450 2569 
L 2541 2569 
Q 2866 2569 3028 2644 
Q 3316 2775 3316 3163 
Q 3316 3581 3038 3725 
Q 2881 3806 2569 3806 
L 1450 3806 
z
M 2769 4606 
Q 3253 4597 3514 4487 
Q 3775 4378 3956 4166 
Q 4106 3991 4193 3778 
Q 4281 3566 4281 3294 
Q 4281 2966 4115 2648 
Q 3950 2331 3569 2200 
Q 3888 2072 4020 1836 
Q 4153 1600 4153 1116 
L 4153 806 
Q 4153 491 4178 378 
Q 4216 200 4353 116 
L 4353 0 
L 3294 0 
Q 3250 153 3231 247 
Q 3194 441 3191 644 
L 3184 1072 
Q 3178 1513 3023 1659 
Q 2869 1806 2444 1806 
L 1450 1806 
L 1450 0 
L 509 0 
L 509 4606 
L 2769 4606 
z
" transform="scale(0.015625)"/>
      <path id="Helvetica-Bold-54" d="M 3834 4606 
L 3834 3791 
L 2456 3791 
L 2456 0 
L 1488 0 
L 1488 3791 
L 103 3791 
L 103 4606 
L 3834 4606 
z
" transform="scale(0.015625)"/>
     </defs>
     <use xlink:href="#Helvetica-Bold-4d"/>
     <use xlink:href="#Helvetica-Bold-6f" transform="translate(83.300781 0)"/>
     <use xlink:href="#Helvetica-Bold-64" transform="translate(144.384766 0)"/>
     <use xlink:href="#Helvetica-Bold-65" transform="translate(205.46875 0)"/>
     <use xlink:href="#Helvetica-Bold-72" transform="translate(261.083984 0)"/>
     <use xlink:href="#Helvetica-Bold-6e" transform="translate(300 0)"/>
     <use xlink:href="#Helvetica-Bold-42" transform="translate(361.083984 0)"/>
     <use xlink:href="#Helvetica-Bold-45" transform="translate(433.300781 0)"/>
     <use xlink:href="#Helvetica-Bold-52" transform="translate(500 0)"/>
     <use xlink:href="#Helvetica-Bold-54" transform="translate(572.216797 0)"/>
    </g>
   </g>
   <g id="patch_7">
    <path d="M 110.564025 439.356074 
L 129.24942 439.356074 
L 129.24942 438.413424 
L 110.564025 438.413424 
z
" clip-path="url(#pa6bb80c861)" style="fill: #4a3977; stroke: #ffffff; stroke-linejoin: miter"/>
   </g>
   <g id="patch_8">
    <path d="M 250.704492 439.356074 
L 269.389887 439.356074 
L 269.389887 342.829161 
L 250.704492 342.829161 
z
" clip-path="url(#pa6bb80c861)" style="fill: #4a3977; stroke: #ffffff; stroke-linejoin: miter"/>
   </g>
   <g id="patch_9">
    <path d="M 390.844959 439.356074 
L 409.530355 439.356074 
L 409.530355 366.333186 
L 390.844959 366.333186 
z
" clip-path="url(#pa6bb80c861)" style="fill: #4a3977; stroke: #ffffff; stroke-linejoin: miter"/>
   </g>
   <g id="patch_10">
    <path d="M 530.985426 439.356074 
L 549.670822 439.356074 
L 549.670822 370.877026 
L 530.985426 370.877026 
z
" clip-path="url(#pa6bb80c861)" style="fill: #4a3977; stroke: #ffffff; stroke-linejoin: miter"/>
   </g>
   <g id="patch_11">
    <path d="M 671.125893 439.356074 
L 689.811289 439.356074 
L 689.811289 412.924511 
L 671.125893 412.924511 
z
" clip-path="url(#pa6bb80c861)" style="fill: #4a3977; stroke: #ffffff; stroke-linejoin: miter"/>
   </g>
   <g id="patch_12">
    <path d="M 129.24942 439.356074 
L 147.934816 439.356074 
L 147.934816 438.209457 
L 129.24942 438.209457 
z
" clip-path="url(#pa6bb80c861)" style="fill: #3f5d84; stroke: #ffffff; stroke-linejoin: miter"/>
   </g>
   <g id="patch_13">
    <path d="M 269.389887 439.356074 
L 288.075283 439.356074 
L 288.075283 68.217551 
L 269.389887 68.217551 
z
" clip-path="url(#pa6bb80c861)" style="fill: #3f5d84; stroke: #ffffff; stroke-linejoin: miter"/>
   </g>
   <g id="patch_14">
    <path d="M 409.530355 439.356074 
L 428.21575 439.356074 
L 428.21575 283.848107 
L 409.530355 283.848107 
z
" clip-path="url(#pa6bb80c861)" style="fill: #3f5d84; stroke: #ffffff; stroke-linejoin: miter"/>
   </g>
   <g id="patch_15">
    <path d="M 549.670822 439.356074 
L 568.356217 439.356074 
L 568.356217 297.474133 
L 549.670822 297.474133 
z
" clip-path="url(#pa6bb80c861)" style="fill: #3f5d84; stroke: #ffffff; stroke-linejoin: miter"/>
   </g>
   <g id="patch_16">
    <path d="M 689.811289 439.356074 
L 708.496685 439.356074 
L 708.496685 292.277884 
L 689.811289 292.277884 
z
" clip-path="url(#pa6bb80c861)" style="fill: #3f5d84; stroke: #ffffff; stroke-linejoin: miter"/>
   </g>
   <g id="patch_17">
    <path d="M 147.934816 439.356074 
L 166.620211 439.356074 
L 166.620211 439.330241 
L 147.934816 439.330241 
z
" clip-path="url(#pa6bb80c861)" style="fill: #317884; stroke: #ffffff; stroke-linejoin: miter"/>
   </g>
   <g id="patch_18">
    <path d="M 288.075283 439.356074 
L 306.760679 439.356074 
L 306.760679 420.246026 
L 288.075283 420.246026 
z
" clip-path="url(#pa6bb80c861)" style="fill: #317884; stroke: #ffffff; stroke-linejoin: miter"/>
   </g>
   <g id="patch_19">
    <path d="M 428.21575 439.356074 
L 446.901146 439.356074 
L 446.901146 428.396382 
L 428.21575 428.396382 
z
" clip-path="url(#pa6bb80c861)" style="fill: #317884; stroke: #ffffff; stroke-linejoin: miter"/>
   </g>
   <g id="patch_20">
    <path d="M 568.356217 439.356074 
L 587.041613 439.356074 
L 587.041613 423.285397 
L 568.356217 423.285397 
z
" clip-path="url(#pa6bb80c861)" style="fill: #317884; stroke: #ffffff; stroke-linejoin: miter"/>
   </g>
   <g id="patch_21">
    <path d="M 708.496685 439.356074 
L 727.18208 439.356074 
L 727.18208 435.925505 
L 708.496685 435.925505 
z
" clip-path="url(#pa6bb80c861)" style="fill: #317884; stroke: #ffffff; stroke-linejoin: miter"/>
   </g>
   <g id="patch_22">
    <path d="M 166.620211 439.356074 
L 185.305607 439.356074 
L 185.305607 437.939831 
L 166.620211 437.939831 
z
" clip-path="url(#pa6bb80c861)" style="fill: #2c947f; stroke: #ffffff; stroke-linejoin: miter"/>
   </g>
   <g id="patch_23">
    <path d="M 306.760679 439.356074 
L 325.446074 439.356074 
L 325.446074 365.662584 
L 306.760679 365.662584 
z
" clip-path="url(#pa6bb80c861)" style="fill: #2c947f; stroke: #ffffff; stroke-linejoin: miter"/>
   </g>
   <g id="patch_24">
    <path d="M 446.901146 439.356074 
L 465.586541 439.356074 
L 465.586541 392.277865 
L 446.901146 392.277865 
z
" clip-path="url(#pa6bb80c861)" style="fill: #2c947f; stroke: #ffffff; stroke-linejoin: miter"/>
   </g>
   <g id="patch_25">
    <path d="M 587.041613 439.356074 
L 605.727009 439.356074 
L 605.727009 419.867277 
L 587.041613 419.867277 
z
" clip-path="url(#pa6bb80c861)" style="fill: #2c947f; stroke: #ffffff; stroke-linejoin: miter"/>
   </g>
   <g id="patch_26">
    <path d="M 727.18208 439.356074 
L 745.867476 439.356074 
L 745.867476 437.127424 
L 727.18208 437.127424 
z
" clip-path="url(#pa6bb80c861)" style="fill: #2c947f; stroke: #ffffff; stroke-linejoin: miter"/>
   </g>
   <g id="patch_27">
    <path d="M 185.305607 439.356074 
L 203.991003 439.356074 
L 203.991003 439.081437 
L 185.305607 439.081437 
z
" clip-path="url(#pa6bb80c861)" style="fill: #56b572; stroke: #ffffff; stroke-linejoin: miter"/>
   </g>
   <g id="patch_28">
    <path d="M 325.446074 439.356074 
L 344.13147 439.356074 
L 344.13147 278.43677 
L 325.446074 278.43677 
z
" clip-path="url(#pa6bb80c861)" style="fill: #56b572; stroke: #ffffff; stroke-linejoin: miter"/>
   </g>
   <g id="patch_29">
    <path d="M 465.586541 439.356074 
L 484.271937 439.356074 
L 484.271937 207.765973 
L 465.586541 207.765973 
z
" clip-path="url(#pa6bb80c861)" style="fill: #56b572; stroke: #ffffff; stroke-linejoin: miter"/>
   </g>
   <g id="patch_30">
    <path d="M 605.727009 439.356074 
L 624.412404 439.356074 
L 624.412404 405.74613 
L 605.727009 405.74613 
z
" clip-path="url(#pa6bb80c861)" style="fill: #56b572; stroke: #ffffff; stroke-linejoin: miter"/>
   </g>
   <g id="patch_31">
    <path d="M 745.867476 439.356074 
L 764.552871 439.356074 
L 764.552871 427.362918 
L 745.867476 427.362918 
z
" clip-path="url(#pa6bb80c861)" style="fill: #56b572; stroke: #ffffff; stroke-linejoin: miter"/>
   </g>
   <g id="patch_32">
    <path d="M 203.991003 439.356074 
L 222.676398 439.356074 
L 222.676398 438.941736 
L 203.991003 438.941736 
z
" clip-path="url(#pa6bb80c861)" style="fill: #9bca49; stroke: #ffffff; stroke-linejoin: miter"/>
   </g>
   <g id="patch_33">
    <path d="M 344.13147 439.356074 
L 362.816866 439.356074 
L 362.816866 427.792811 
L 344.13147 427.792811 
z
" clip-path="url(#pa6bb80c861)" style="fill: #9bca49; stroke: #ffffff; stroke-linejoin: miter"/>
   </g>
   <g id="patch_34">
    <path d="M 484.271937 439.356074 
L 502.957333 439.356074 
L 502.957333 377.495425 
L 484.271937 377.495425 
z
" clip-path="url(#pa6bb80c861)" style="fill: #9bca49; stroke: #ffffff; stroke-linejoin: miter"/>
   </g>
   <g id="patch_35">
    <path d="M 624.412404 439.356074 
L 643.0978 439.356074 
L 643.0978 327.281321 
L 624.412404 327.281321 
z
" clip-path="url(#pa6bb80c861)" style="fill: #9bca49; stroke: #ffffff; stroke-linejoin: miter"/>
   </g>
   <g id="patch_36">
    <path d="M 764.552871 439.356074 
L 783.238267 439.356074 
L 783.238267 426.823983 
L 764.552871 426.823983 
z
" clip-path="url(#pa6bb80c861)" style="fill: #9bca49; stroke: #ffffff; stroke-linejoin: miter"/>
   </g>
   <g id="patch_37">
    <path d="M 166.620211 439.356074 
L 166.620211 439.356074 
L 166.620211 439.356074 
L 166.620211 439.356074 
z
" clip-path="url(#pa6bb80c861)" style="fill: #4a3977; stroke: #ffffff; stroke-linejoin: miter"/>
   </g>
   <g id="patch_38">
    <path d="M 166.620211 439.356074 
L 166.620211 439.356074 
L 166.620211 439.356074 
L 166.620211 439.356074 
z
" clip-path="url(#pa6bb80c861)" style="fill: #3f5d84; stroke: #ffffff; stroke-linejoin: miter"/>
   </g>
   <g id="patch_39">
    <path d="M 166.620211 439.356074 
L 166.620211 439.356074 
L 166.620211 439.356074 
L 166.620211 439.356074 
z
" clip-path="url(#pa6bb80c861)" style="fill: #317884; stroke: #ffffff; stroke-linejoin: miter"/>
   </g>
   <g id="patch_40">
    <path d="M 166.620211 439.356074 
L 166.620211 439.356074 
L 166.620211 439.356074 
L 166.620211 439.356074 
z
" clip-path="url(#pa6bb80c861)" style="fill: #2c947f; stroke: #ffffff; stroke-linejoin: miter"/>
   </g>
   <g id="patch_41">
    <path d="M 166.620211 439.356074 
L 166.620211 439.356074 
L 166.620211 439.356074 
L 166.620211 439.356074 
z
" clip-path="url(#pa6bb80c861)" style="fill: #56b572; stroke: #ffffff; stroke-linejoin: miter"/>
   </g>
   <g id="patch_42">
    <path d="M 166.620211 439.356074 
L 166.620211 439.356074 
L 166.620211 439.356074 
L 166.620211 439.356074 
z
" clip-path="url(#pa6bb80c861)" style="fill: #9bca49; stroke: #ffffff; stroke-linejoin: miter"/>
   </g>
  </g>
  <g id="axes_2">
   <g id="patch_43">
    <path d="M 827.671979 468.960625 
L 1567.613646 468.960625 
L 1567.613646 49.660625 
L 827.671979 49.660625 
z
" style="fill: #ffffff"/>
   </g>
   <g id="matplotlib.axis_3">
    <g id="xtick_6">
     <g id="line2d_13">
      <path d="M 917.361878 468.960625 
L 917.361878 49.660625 
" clip-path="url(#p930b19a3c7)" style="fill: none; stroke-dasharray: 2.96,1.28; stroke-dashoffset: 0; stroke: #cccccc; stroke-opacity: 0.35; stroke-width: 0.8"/>
     </g>
     <g id="text_16">
      <!-- Bare Model -->
      <g style="fill: #262626" transform="translate(881.567816 487.503437) scale(0.14 -0.14)">
       <use xlink:href="#Helvetica-42"/>
       <use xlink:href="#Helvetica-61" transform="translate(66.699219 0)"/>
       <use xlink:href="#Helvetica-72" transform="translate(122.314453 0)"/>
       <use xlink:href="#Helvetica-65" transform="translate(155.615234 0)"/>
       <use xlink:href="#Helvetica-20" transform="translate(211.230469 0)"/>
       <use xlink:href="#Helvetica-4d" transform="translate(239.013672 0)"/>
       <use xlink:href="#Helvetica-6f" transform="translate(322.314453 0)"/>
       <use xlink:href="#Helvetica-64" transform="translate(377.929688 0)"/>
       <use xlink:href="#Helvetica-65" transform="translate(433.544922 0)"/>
       <use xlink:href="#Helvetica-6c" transform="translate(489.160156 0)"/>
      </g>
     </g>
    </g>
    <g id="xtick_7">
     <g id="line2d_14">
      <path d="M 1057.502345 468.960625 
L 1057.502345 49.660625 
" clip-path="url(#p930b19a3c7)" style="fill: none; stroke-dasharray: 2.96,1.28; stroke-dashoffset: 0; stroke: #cccccc; stroke-opacity: 0.35; stroke-width: 0.8"/>
     </g>
     <g id="text_17">
      <!-- NTXent -->
      <g style="fill: #262626" transform="translate(1033.772345 487.503437) scale(0.14 -0.14)">
       <use xlink:href="#Helvetica-4e"/>
       <use xlink:href="#Helvetica-54" transform="translate(72.216797 0)"/>
       <use xlink:href="#Helvetica-58" transform="translate(133.300781 0)"/>
       <use xlink:href="#Helvetica-65" transform="translate(200 0)"/>
       <use xlink:href="#Helvetica-6e" transform="translate(255.615234 0)"/>
       <use xlink:href="#Helvetica-74" transform="translate(311.230469 0)"/>
      </g>
     </g>
    </g>
    <g id="xtick_8">
     <g id="line2d_15">
      <path d="M 1197.642813 468.960625 
L 1197.642813 49.660625 
" clip-path="url(#p930b19a3c7)" style="fill: none; stroke-dasharray: 2.96,1.28; stroke-dashoffset: 0; stroke: #cccccc; stroke-opacity: 0.35; stroke-width: 0.8"/>
     </g>
     <g id="text_18">
      <!-- NTBXent -->
      <g style="fill: #262626" transform="translate(1169.243594 487.503437) scale(0.14 -0.14)">
       <use xlink:href="#Helvetica-4e"/>
       <use xlink:href="#Helvetica-54" transform="translate(72.216797 0)"/>
       <use xlink:href="#Helvetica-42" transform="translate(133.300781 0)"/>
       <use xlink:href="#Helvetica-58" transform="translate(200 0)"/>
       <use xlink:href="#Helvetica-65" transform="translate(266.699219 0)"/>
       <use xlink:href="#Helvetica-6e" transform="translate(322.314453 0)"/>
       <use xlink:href="#Helvetica-74" transform="translate(377.929688 0)"/>
      </g>
     </g>
    </g>
    <g id="xtick_9">
     <g id="line2d_16">
      <path d="M 1337.78328 468.960625 
L 1337.78328 49.660625 
" clip-path="url(#p930b19a3c7)" style="fill: none; stroke-dasharray: 2.96,1.28; stroke-dashoffset: 0; stroke: #cccccc; stroke-opacity: 0.35; stroke-width: 0.8"/>
     </g>
     <g id="text_19">
      <!-- Triplet -->
      <g style="fill: #262626" transform="translate(1318.336405 487.503437) scale(0.14 -0.14)">
       <use xlink:href="#Helvetica-54"/>
       <use xlink:href="#Helvetica-72" transform="translate(61.083984 0)"/>
       <use xlink:href="#Helvetica-69" transform="translate(94.384766 0)"/>
       <use xlink:href="#Helvetica-70" transform="translate(116.601562 0)"/>
       <use xlink:href="#Helvetica-6c" transform="translate(172.216797 0)"/>
       <use xlink:href="#Helvetica-65" transform="translate(194.433594 0)"/>
       <use xlink:href="#Helvetica-74" transform="translate(250.048828 0)"/>
      </g>
     </g>
    </g>
    <g id="xtick_10">
     <g id="line2d_17">
      <path d="M 1477.923747 468.960625 
L 1477.923747 49.660625 
" clip-path="url(#p930b19a3c7)" style="fill: none; stroke-dasharray: 2.96,1.28; stroke-dashoffset: 0; stroke: #cccccc; stroke-opacity: 0.35; stroke-width: 0.8"/>
     </g>
     <g id="text_20">
      <!-- Pair -->
      <g style="fill: #262626" transform="translate(1465.475778 487.503437) scale(0.14 -0.14)">
       <use xlink:href="#Helvetica-50"/>
       <use xlink:href="#Helvetica-61" transform="translate(66.699219 0)"/>
       <use xlink:href="#Helvetica-69" transform="translate(122.314453 0)"/>
       <use xlink:href="#Helvetica-72" transform="translate(144.53125 0)"/>
      </g>
     </g>
    </g>
    <g id="text_21">
     <!-- Loss Type -->
     <g style="fill: #262626" transform="translate(1156.126094 515.33375) scale(0.18 -0.18)">
      <use xlink:href="#Helvetica-4c"/>
      <use xlink:href="#Helvetica-6f" transform="translate(55.615234 0)"/>
      <use xlink:href="#Helvetica-73" transform="translate(111.230469 0)"/>
      <use xlink:href="#Helvetica-73" transform="translate(161.230469 0)"/>
      <use xlink:href="#Helvetica-20" transform="translate(211.230469 0)"/>
      <use xlink:href="#Helvetica-54" transform="translate(239.013672 0)"/>
      <use xlink:href="#Helvetica-79" transform="translate(300.097656 0)"/>
      <use xlink:href="#Helvetica-70" transform="translate(350.097656 0)"/>
      <use xlink:href="#Helvetica-65" transform="translate(405.712891 0)"/>
     </g>
    </g>
   </g>
   <g id="matplotlib.axis_4">
    <g id="ytick_8">
     <g id="line2d_18">
      <path d="M 827.671979 439.356074 
L 1567.613646 439.356074 
" clip-path="url(#p930b19a3c7)" style="fill: none; stroke-dasharray: 2.96,1.28; stroke-dashoffset: 0; stroke: #cccccc; stroke-opacity: 0.35; stroke-width: 0.8"/>
     </g>
    </g>
    <g id="ytick_9">
     <g id="line2d_19">
      <path d="M 827.671979 380.146972 
L 1567.613646 380.146972 
" clip-path="url(#p930b19a3c7)" style="fill: none; stroke-dasharray: 2.96,1.28; stroke-dashoffset: 0; stroke: #cccccc; stroke-opacity: 0.35; stroke-width: 0.8"/>
     </g>
    </g>
    <g id="ytick_10">
     <g id="line2d_20">
      <path d="M 827.671979 320.93787 
L 1567.613646 320.93787 
" clip-path="url(#p930b19a3c7)" style="fill: none; stroke-dasharray: 2.96,1.28; stroke-dashoffset: 0; stroke: #cccccc; stroke-opacity: 0.35; stroke-width: 0.8"/>
     </g>
    </g>
    <g id="ytick_11">
     <g id="line2d_21">
      <path d="M 827.671979 261.728769 
L 1567.613646 261.728769 
" clip-path="url(#p930b19a3c7)" style="fill: none; stroke-dasharray: 2.96,1.28; stroke-dashoffset: 0; stroke: #cccccc; stroke-opacity: 0.35; stroke-width: 0.8"/>
     </g>
    </g>
    <g id="ytick_12">
     <g id="line2d_22">
      <path d="M 827.671979 202.519667 
L 1567.613646 202.519667 
" clip-path="url(#p930b19a3c7)" style="fill: none; stroke-dasharray: 2.96,1.28; stroke-dashoffset: 0; stroke: #cccccc; stroke-opacity: 0.35; stroke-width: 0.8"/>
     </g>
    </g>
    <g id="ytick_13">
     <g id="line2d_23">
      <path d="M 827.671979 143.310565 
L 1567.613646 143.310565 
" clip-path="url(#p930b19a3c7)" style="fill: none; stroke-dasharray: 2.96,1.28; stroke-dashoffset: 0; stroke: #cccccc; stroke-opacity: 0.35; stroke-width: 0.8"/>
     </g>
    </g>
    <g id="ytick_14">
     <g id="line2d_24">
      <path d="M 827.671979 84.101463 
L 1567.613646 84.101463 
" clip-path="url(#p930b19a3c7)" style="fill: none; stroke-dasharray: 2.96,1.28; stroke-dashoffset: 0; stroke: #cccccc; stroke-opacity: 0.35; stroke-width: 0.8"/>
     </g>
    </g>
   </g>
   <g id="patch_44">
    <path d="M 827.671979 468.960625 
L 827.671979 49.660625 
" style="fill: none; stroke: #262626; stroke-width: 2; stroke-linejoin: miter; stroke-linecap: square"/>
   </g>
   <g id="patch_45">
    <path d="M 1567.613646 468.960625 
L 1567.613646 49.660625 
" style="fill: none; stroke: #262626; stroke-width: 2; stroke-linejoin: miter; stroke-linecap: square"/>
   </g>
   <g id="patch_46">
    <path d="M 827.671979 468.960625 
L 1567.613646 468.960625 
" style="fill: none; stroke: #262626; stroke-width: 2; stroke-linejoin: miter; stroke-linecap: square"/>
   </g>
   <g id="patch_47">
    <path d="M 827.671979 49.660625 
L 1567.613646 49.660625 
" style="fill: none; stroke: #262626; stroke-width: 2; stroke-linejoin: miter; stroke-linecap: square"/>
   </g>
   <g id="text_22">
    <!-- BERT-base -->
    <g style="fill: #262626" transform="translate(1122.96375 34.660625) scale(0.28 -0.28)">
     <defs>
      <path id="Helvetica-Bold-2d" d="M 147 2206 
L 1941 2206 
L 1941 1363 
L 147 1363 
L 147 2206 
z
" transform="scale(0.015625)"/>
      <path id="Helvetica-Bold-62" d="M 2256 3481 
Q 2928 3481 3308 2997 
Q 3688 2513 3688 1747 
Q 3688 953 3313 431 
Q 2938 -91 2266 -91 
Q 1844 -91 1588 78 
Q 1434 178 1256 428 
L 1256 0 
L 384 0 
L 384 4600 
L 1272 4600 
L 1272 2963 
Q 1441 3200 1644 3325 
Q 1884 3481 2256 3481 
z
M 2028 644 
Q 2372 644 2562 922 
Q 2753 1200 2753 1653 
Q 2753 2016 2659 2253 
Q 2481 2703 2003 2703 
Q 1519 2703 1338 2263 
Q 1244 2028 1244 1656 
Q 1244 1219 1437 931 
Q 1631 644 2028 644 
z
" transform="scale(0.015625)"/>
      <path id="Helvetica-Bold-61" d="M 2294 1656 
Q 2209 1603 2123 1570 
Q 2038 1538 1888 1509 
L 1688 1472 
Q 1406 1422 1284 1350 
Q 1078 1228 1078 972 
Q 1078 744 1204 642 
Q 1331 541 1513 541 
Q 1800 541 2042 709 
Q 2284 878 2294 1325 
L 2294 1656 
z
M 1753 2072 
Q 2000 2103 2106 2150 
Q 2297 2231 2297 2403 
Q 2297 2613 2151 2692 
Q 2006 2772 1725 2772 
Q 1409 2772 1278 2616 
Q 1184 2500 1153 2303 
L 294 2303 
Q 322 2750 544 3038 
Q 897 3488 1756 3488 
Q 2316 3488 2750 3266 
Q 3184 3044 3184 2428 
L 3184 866 
Q 3184 703 3191 472 
Q 3200 297 3244 234 
Q 3288 172 3375 131 
L 3375 0 
L 2406 0 
Q 2366 103 2350 193 
Q 2334 284 2325 400 
Q 2141 200 1900 59 
Q 1613 -106 1250 -106 
Q 788 -106 486 158 
Q 184 422 184 906 
Q 184 1534 669 1816 
Q 934 1969 1450 2034 
L 1753 2072 
z
M 1800 3497 
L 1800 3497 
z
" transform="scale(0.015625)"/>
      <path id="Helvetica-Bold-73" d="M 1109 1088 
Q 1138 850 1231 750 
Q 1397 572 1844 572 
Q 2106 572 2261 650 
Q 2416 728 2416 884 
Q 2416 1034 2291 1113 
Q 2166 1191 1363 1381 
Q 784 1525 547 1741 
Q 309 1953 309 2353 
Q 309 2825 679 3164 
Q 1050 3503 1722 3503 
Q 2359 3503 2761 3248 
Q 3163 2994 3222 2369 
L 2331 2369 
Q 2313 2541 2234 2641 
Q 2088 2822 1734 2822 
Q 1444 2822 1320 2731 
Q 1197 2641 1197 2519 
Q 1197 2366 1328 2297 
Q 1459 2225 2256 2050 
Q 2788 1925 3053 1672 
Q 3316 1416 3316 1031 
Q 3316 525 2939 204 
Q 2563 -116 1775 -116 
Q 972 -116 589 223 
Q 206 563 206 1088 
L 1109 1088 
z
M 1791 3497 
L 1791 3497 
z
" transform="scale(0.015625)"/>
     </defs>
     <use xlink:href="#Helvetica-Bold-42"/>
     <use xlink:href="#Helvetica-Bold-45" transform="translate(72.216797 0)"/>
     <use xlink:href="#Helvetica-Bold-52" transform="translate(138.916016 0)"/>
     <use xlink:href="#Helvetica-Bold-54" transform="translate(211.132812 0)"/>
     <use xlink:href="#Helvetica-Bold-2d" transform="translate(272.216797 0)"/>
     <use xlink:href="#Helvetica-Bold-62" transform="translate(305.517578 0)"/>
     <use xlink:href="#Helvetica-Bold-61" transform="translate(366.601562 0)"/>
     <use xlink:href="#Helvetica-Bold-73" transform="translate(422.216797 0)"/>
     <use xlink:href="#Helvetica-Bold-65" transform="translate(477.832031 0)"/>
    </g>
   </g>
   <g id="patch_48">
    <path d="M 861.305691 439.356074 
L 879.991087 439.356074 
L 879.991087 438.661169 
L 861.305691 438.661169 
z
" clip-path="url(#p930b19a3c7)" style="fill: #4a3977; stroke: #ffffff; stroke-linejoin: miter"/>
   </g>
   <g id="patch_49">
    <path d="M 1001.446158 439.356074 
L 1020.131554 439.356074 
L 1020.131554 313.358397 
L 1001.446158 313.358397 
z
" clip-path="url(#p930b19a3c7)" style="fill: #4a3977; stroke: #ffffff; stroke-linejoin: miter"/>
   </g>
   <g id="patch_50">
    <path d="M 1141.586626 439.356074 
L 1160.272021 439.356074 
L 1160.272021 329.276163 
L 1141.586626 329.276163 
z
" clip-path="url(#p930b19a3c7)" style="fill: #4a3977; stroke: #ffffff; stroke-linejoin: miter"/>
   </g>
   <g id="patch_51">
    <path d="M 1281.727093 439.356074 
L 1300.412488 439.356074 
L 1300.412488 329.954451 
L 1281.727093 329.954451 
z
" clip-path="url(#p930b19a3c7)" style="fill: #4a3977; stroke: #ffffff; stroke-linejoin: miter"/>
   </g>
   <g id="patch_52">
    <path d="M 1421.86756 439.356074 
L 1440.552956 439.356074 
L 1440.552956 381.544126 
L 1421.86756 381.544126 
z
" clip-path="url(#p930b19a3c7)" style="fill: #4a3977; stroke: #ffffff; stroke-linejoin: miter"/>
   </g>
   <g id="patch_53">
    <path d="M 879.991087 439.356074 
L 898.676483 439.356074 
L 898.676483 438.371462 
L 879.991087 438.371462 
z
" clip-path="url(#p930b19a3c7)" style="fill: #3f5d84; stroke: #ffffff; stroke-linejoin: miter"/>
   </g>
   <g id="patch_54">
    <path d="M 1020.131554 439.356074 
L 1038.81695 439.356074 
L 1038.81695 96.845632 
L 1020.131554 96.845632 
z
" clip-path="url(#p930b19a3c7)" style="fill: #3f5d84; stroke: #ffffff; stroke-linejoin: miter"/>
   </g>
   <g id="patch_55">
    <path d="M 1160.272021 439.356074 
L 1178.957417 439.356074 
L 1178.957417 148.352344 
L 1160.272021 148.352344 
z
" clip-path="url(#p930b19a3c7)" style="fill: #3f5d84; stroke: #ffffff; stroke-linejoin: miter"/>
   </g>
   <g id="patch_56">
    <path d="M 1300.412488 439.356074 
L 1319.097884 439.356074 
L 1319.097884 237.82242 
L 1300.412488 237.82242 
z
" clip-path="url(#p930b19a3c7)" style="fill: #3f5d84; stroke: #ffffff; stroke-linejoin: miter"/>
   </g>
   <g id="patch_57">
    <path d="M 1440.552956 439.356074 
L 1459.238351 439.356074 
L 1459.238351 260.69123 
L 1440.552956 260.69123 
z
" clip-path="url(#p930b19a3c7)" style="fill: #3f5d84; stroke: #ffffff; stroke-linejoin: miter"/>
   </g>
   <g id="patch_58">
    <path d="M 898.676483 439.356074 
L 917.361878 439.356074 
L 917.361878 438.921302 
L 898.676483 438.921302 
z
" clip-path="url(#p930b19a3c7)" style="fill: #317884; stroke: #ffffff; stroke-linejoin: miter"/>
   </g>
   <g id="patch_59">
    <path d="M 1038.81695 439.356074 
L 1057.502345 439.356074 
L 1057.502345 375.125878 
L 1038.81695 375.125878 
z
" clip-path="url(#p930b19a3c7)" style="fill: #317884; stroke: #ffffff; stroke-linejoin: miter"/>
   </g>
   <g id="patch_60">
    <path d="M 1178.957417 439.356074 
L 1197.642813 439.356074 
L 1197.642813 358.792856 
L 1178.957417 358.792856 
z
" clip-path="url(#p930b19a3c7)" style="fill: #317884; stroke: #ffffff; stroke-linejoin: miter"/>
   </g>
   <g id="patch_61">
    <path d="M 1319.097884 439.356074 
L 1337.78328 439.356074 
L 1337.78328 344.879114 
L 1319.097884 344.879114 
z
" clip-path="url(#p930b19a3c7)" style="fill: #317884; stroke: #ffffff; stroke-linejoin: miter"/>
   </g>
   <g id="patch_62">
    <path d="M 1459.238351 439.356074 
L 1477.923747 439.356074 
L 1477.923747 434.464672 
L 1459.238351 434.464672 
z
" clip-path="url(#p930b19a3c7)" style="fill: #317884; stroke: #ffffff; stroke-linejoin: miter"/>
   </g>
   <g id="patch_63">
    <path d="M 917.361878 439.356074 
L 936.047274 439.356074 
L 936.047274 438.327948 
L 917.361878 438.327948 
z
" clip-path="url(#p930b19a3c7)" style="fill: #2c947f; stroke: #ffffff; stroke-linejoin: miter"/>
   </g>
   <g id="patch_64">
    <path d="M 1057.502345 439.356074 
L 1076.187741 439.356074 
L 1076.187741 356.71847 
L 1057.502345 356.71847 
z
" clip-path="url(#p930b19a3c7)" style="fill: #2c947f; stroke: #ffffff; stroke-linejoin: miter"/>
   </g>
   <g id="patch_65">
    <path d="M 1197.642813 439.356074 
L 1216.328208 439.356074 
L 1216.328208 381.174122 
L 1197.642813 381.174122 
z
" clip-path="url(#p930b19a3c7)" style="fill: #2c947f; stroke: #ffffff; stroke-linejoin: miter"/>
   </g>
   <g id="patch_66">
    <path d="M 1337.78328 439.356074 
L 1356.468675 439.356074 
L 1356.468675 343.97307 
L 1337.78328 343.97307 
z
" clip-path="url(#p930b19a3c7)" style="fill: #2c947f; stroke: #ffffff; stroke-linejoin: miter"/>
   </g>
   <g id="patch_67">
    <path d="M 1477.923747 439.356074 
L 1496.609142 439.356074 
L 1496.609142 374.413389 
L 1477.923747 374.413389 
z
" clip-path="url(#p930b19a3c7)" style="fill: #2c947f; stroke: #ffffff; stroke-linejoin: miter"/>
   </g>
   <g id="patch_68">
    <path d="M 936.047274 439.356074 
L 954.732669 439.356074 
L 954.732669 438.479207 
L 936.047274 438.479207 
z
" clip-path="url(#p930b19a3c7)" style="fill: #56b572; stroke: #ffffff; stroke-linejoin: miter"/>
   </g>
   <g id="patch_69">
    <path d="M 1076.187741 439.356074 
L 1094.873137 439.356074 
L 1094.873137 132.124831 
L 1076.187741 132.124831 
z
" clip-path="url(#p930b19a3c7)" style="fill: #56b572; stroke: #ffffff; stroke-linejoin: miter"/>
   </g>
   <g id="patch_70">
    <path d="M 1216.328208 439.356074 
L 1235.013604 439.356074 
L 1235.013604 171.899305 
L 1216.328208 171.899305 
z
" clip-path="url(#p930b19a3c7)" style="fill: #56b572; stroke: #ffffff; stroke-linejoin: miter"/>
   </g>
   <g id="patch_71">
    <path d="M 1356.468675 439.356074 
L 1375.154071 439.356074 
L 1375.154071 181.557019 
L 1356.468675 181.557019 
z
" clip-path="url(#p930b19a3c7)" style="fill: #56b572; stroke: #ffffff; stroke-linejoin: miter"/>
   </g>
   <g id="patch_72">
    <path d="M 1496.609142 439.356074 
L 1515.294538 439.356074 
L 1515.294538 350.691789 
L 1496.609142 350.691789 
z
" clip-path="url(#p930b19a3c7)" style="fill: #56b572; stroke: #ffffff; stroke-linejoin: miter"/>
   </g>
   <g id="patch_73">
    <path d="M 954.732669 439.356074 
L 973.418065 439.356074 
L 973.418065 438.783895 
L 954.732669 438.783895 
z
" clip-path="url(#p930b19a3c7)" style="fill: #9bca49; stroke: #ffffff; stroke-linejoin: miter"/>
   </g>
   <g id="patch_74">
    <path d="M 1094.873137 439.356074 
L 1113.558532 439.356074 
L 1113.558532 387.754429 
L 1094.873137 387.754429 
z
" clip-path="url(#p930b19a3c7)" style="fill: #9bca49; stroke: #ffffff; stroke-linejoin: miter"/>
   </g>
   <g id="patch_75">
    <path d="M 1235.013604 439.356074 
L 1253.698999 439.356074 
L 1253.698999 386.552038 
L 1235.013604 386.552038 
z
" clip-path="url(#p930b19a3c7)" style="fill: #9bca49; stroke: #ffffff; stroke-linejoin: miter"/>
   </g>
   <g id="patch_76">
    <path d="M 1375.154071 439.356074 
L 1393.839467 439.356074 
L 1393.839467 385.829941 
L 1375.154071 385.829941 
z
" clip-path="url(#p930b19a3c7)" style="fill: #9bca49; stroke: #ffffff; stroke-linejoin: miter"/>
   </g>
   <g id="patch_77">
    <path d="M 1515.294538 439.356074 
L 1533.979934 439.356074 
L 1533.979934 426.06019 
L 1515.294538 426.06019 
z
" clip-path="url(#p930b19a3c7)" style="fill: #9bca49; stroke: #ffffff; stroke-linejoin: miter"/>
   </g>
  </g>
  <g id="axes_3">
   <g id="patch_78">
    <path d="M 1578.413646 468.960625 
L 2318.355313 468.960625 
L 2318.355313 49.660625 
L 1578.413646 49.660625 
z
" style="fill: #ffffff"/>
   </g>
   <g id="matplotlib.axis_5">
    <g id="xtick_11">
     <g id="line2d_25">
      <path d="M 1668.103545 468.960625 
L 1668.103545 49.660625 
" clip-path="url(#p88212c63c3)" style="fill: none; stroke-dasharray: 2.96,1.28; stroke-dashoffset: 0; stroke: #cccccc; stroke-opacity: 0.35; stroke-width: 0.8"/>
     </g>
     <g id="text_23">
      <!-- Bare Model -->
      <g style="fill: #262626" transform="translate(1632.309482 487.503437) scale(0.14 -0.14)">
       <use xlink:href="#Helvetica-42"/>
       <use xlink:href="#Helvetica-61" transform="translate(66.699219 0)"/>
       <use xlink:href="#Helvetica-72" transform="translate(122.314453 0)"/>
       <use xlink:href="#Helvetica-65" transform="translate(155.615234 0)"/>
       <use xlink:href="#Helvetica-20" transform="translate(211.230469 0)"/>
       <use xlink:href="#Helvetica-4d" transform="translate(239.013672 0)"/>
       <use xlink:href="#Helvetica-6f" transform="translate(322.314453 0)"/>
       <use xlink:href="#Helvetica-64" transform="translate(377.929688 0)"/>
       <use xlink:href="#Helvetica-65" transform="translate(433.544922 0)"/>
       <use xlink:href="#Helvetica-6c" transform="translate(489.160156 0)"/>
      </g>
     </g>
    </g>
    <g id="xtick_12">
     <g id="line2d_26">
      <path d="M 1808.244012 468.960625 
L 1808.244012 49.660625 
" clip-path="url(#p88212c63c3)" style="fill: none; stroke-dasharray: 2.96,1.28; stroke-dashoffset: 0; stroke: #cccccc; stroke-opacity: 0.35; stroke-width: 0.8"/>
     </g>
     <g id="text_24">
      <!-- NTXent -->
      <g style="fill: #262626" transform="translate(1784.514012 487.503437) scale(0.14 -0.14)">
       <use xlink:href="#Helvetica-4e"/>
       <use xlink:href="#Helvetica-54" transform="translate(72.216797 0)"/>
       <use xlink:href="#Helvetica-58" transform="translate(133.300781 0)"/>
       <use xlink:href="#Helvetica-65" transform="translate(200 0)"/>
       <use xlink:href="#Helvetica-6e" transform="translate(255.615234 0)"/>
       <use xlink:href="#Helvetica-74" transform="translate(311.230469 0)"/>
      </g>
     </g>
    </g>
    <g id="xtick_13">
     <g id="line2d_27">
      <path d="M 1948.384479 468.960625 
L 1948.384479 49.660625 
" clip-path="url(#p88212c63c3)" style="fill: none; stroke-dasharray: 2.96,1.28; stroke-dashoffset: 0; stroke: #cccccc; stroke-opacity: 0.35; stroke-width: 0.8"/>
     </g>
     <g id="text_25">
      <!-- NTBXent -->
      <g style="fill: #262626" transform="translate(1919.98526 487.503437) scale(0.14 -0.14)">
       <use xlink:href="#Helvetica-4e"/>
       <use xlink:href="#Helvetica-54" transform="translate(72.216797 0)"/>
       <use xlink:href="#Helvetica-42" transform="translate(133.300781 0)"/>
       <use xlink:href="#Helvetica-58" transform="translate(200 0)"/>
       <use xlink:href="#Helvetica-65" transform="translate(266.699219 0)"/>
       <use xlink:href="#Helvetica-6e" transform="translate(322.314453 0)"/>
       <use xlink:href="#Helvetica-74" transform="translate(377.929688 0)"/>
      </g>
     </g>
    </g>
    <g id="xtick_14">
     <g id="line2d_28">
      <path d="M 2088.524946 468.960625 
L 2088.524946 49.660625 
" clip-path="url(#p88212c63c3)" style="fill: none; stroke-dasharray: 2.96,1.28; stroke-dashoffset: 0; stroke: #cccccc; stroke-opacity: 0.35; stroke-width: 0.8"/>
     </g>
     <g id="text_26">
      <!-- Triplet -->
      <g style="fill: #262626" transform="translate(2069.078071 487.503437) scale(0.14 -0.14)">
       <use xlink:href="#Helvetica-54"/>
       <use xlink:href="#Helvetica-72" transform="translate(61.083984 0)"/>
       <use xlink:href="#Helvetica-69" transform="translate(94.384766 0)"/>
       <use xlink:href="#Helvetica-70" transform="translate(116.601562 0)"/>
       <use xlink:href="#Helvetica-6c" transform="translate(172.216797 0)"/>
       <use xlink:href="#Helvetica-65" transform="translate(194.433594 0)"/>
       <use xlink:href="#Helvetica-74" transform="translate(250.048828 0)"/>
      </g>
     </g>
    </g>
    <g id="xtick_15">
     <g id="line2d_29">
      <path d="M 2228.665414 468.960625 
L 2228.665414 49.660625 
" clip-path="url(#p88212c63c3)" style="fill: none; stroke-dasharray: 2.96,1.28; stroke-dashoffset: 0; stroke: #cccccc; stroke-opacity: 0.35; stroke-width: 0.8"/>
     </g>
     <g id="text_27">
      <!-- Pair -->
      <g style="fill: #262626" transform="translate(2216.217445 487.503437) scale(0.14 -0.14)">
       <use xlink:href="#Helvetica-50"/>
       <use xlink:href="#Helvetica-61" transform="translate(66.699219 0)"/>
       <use xlink:href="#Helvetica-69" transform="translate(122.314453 0)"/>
       <use xlink:href="#Helvetica-72" transform="translate(144.53125 0)"/>
      </g>
     </g>
    </g>
    <g id="text_28">
     <!-- Loss Type -->
     <g style="fill: #262626" transform="translate(1897.641823 518.203125) scale(0.22 -0.22)">
      <use xlink:href="#Helvetica-4c"/>
      <use xlink:href="#Helvetica-6f" transform="translate(55.615234 0)"/>
      <use xlink:href="#Helvetica-73" transform="translate(111.230469 0)"/>
      <use xlink:href="#Helvetica-73" transform="translate(161.230469 0)"/>
      <use xlink:href="#Helvetica-20" transform="translate(211.230469 0)"/>
      <use xlink:href="#Helvetica-54" transform="translate(239.013672 0)"/>
      <use xlink:href="#Helvetica-79" transform="translate(300.097656 0)"/>
      <use xlink:href="#Helvetica-70" transform="translate(350.097656 0)"/>
      <use xlink:href="#Helvetica-65" transform="translate(405.712891 0)"/>
     </g>
    </g>
   </g>
   <g id="matplotlib.axis_6">
    <g id="ytick_15">
     <g id="line2d_30">
      <path d="M 1578.413646 439.356074 
L 2318.355313 439.356074 
" clip-path="url(#p88212c63c3)" style="fill: none; stroke-dasharray: 2.96,1.28; stroke-dashoffset: 0; stroke: #cccccc; stroke-opacity: 0.35; stroke-width: 0.8"/>
     </g>
    </g>
    <g id="ytick_16">
     <g id="line2d_31">
      <path d="M 1578.413646 380.146972 
L 2318.355313 380.146972 
" clip-path="url(#p88212c63c3)" style="fill: none; stroke-dasharray: 2.96,1.28; stroke-dashoffset: 0; stroke: #cccccc; stroke-opacity: 0.35; stroke-width: 0.8"/>
     </g>
    </g>
    <g id="ytick_17">
     <g id="line2d_32">
      <path d="M 1578.413646 320.93787 
L 2318.355313 320.93787 
" clip-path="url(#p88212c63c3)" style="fill: none; stroke-dasharray: 2.96,1.28; stroke-dashoffset: 0; stroke: #cccccc; stroke-opacity: 0.35; stroke-width: 0.8"/>
     </g>
    </g>
    <g id="ytick_18">
     <g id="line2d_33">
      <path d="M 1578.413646 261.728769 
L 2318.355313 261.728769 
" clip-path="url(#p88212c63c3)" style="fill: none; stroke-dasharray: 2.96,1.28; stroke-dashoffset: 0; stroke: #cccccc; stroke-opacity: 0.35; stroke-width: 0.8"/>
     </g>
    </g>
    <g id="ytick_19">
     <g id="line2d_34">
      <path d="M 1578.413646 202.519667 
L 2318.355313 202.519667 
" clip-path="url(#p88212c63c3)" style="fill: none; stroke-dasharray: 2.96,1.28; stroke-dashoffset: 0; stroke: #cccccc; stroke-opacity: 0.35; stroke-width: 0.8"/>
     </g>
    </g>
    <g id="ytick_20">
     <g id="line2d_35">
      <path d="M 1578.413646 143.310565 
L 2318.355313 143.310565 
" clip-path="url(#p88212c63c3)" style="fill: none; stroke-dasharray: 2.96,1.28; stroke-dashoffset: 0; stroke: #cccccc; stroke-opacity: 0.35; stroke-width: 0.8"/>
     </g>
    </g>
    <g id="ytick_21">
     <g id="line2d_36">
      <path d="M 1578.413646 84.101463 
L 2318.355313 84.101463 
" clip-path="url(#p88212c63c3)" style="fill: none; stroke-dasharray: 2.96,1.28; stroke-dashoffset: 0; stroke: #cccccc; stroke-opacity: 0.35; stroke-width: 0.8"/>
     </g>
    </g>
   </g>
   <g id="patch_79">
    <path d="M 1578.413646 468.960625 
L 1578.413646 49.660625 
" style="fill: none; stroke: #262626; stroke-width: 2; stroke-linejoin: miter; stroke-linecap: square"/>
   </g>
   <g id="patch_80">
    <path d="M 2318.355313 468.960625 
L 2318.355313 49.660625 
" style="fill: none; stroke: #262626; stroke-width: 2; stroke-linejoin: miter; stroke-linecap: square"/>
   </g>
   <g id="patch_81">
    <path d="M 1578.413646 468.960625 
L 2318.355313 468.960625 
" style="fill: none; stroke: #262626; stroke-width: 2; stroke-linejoin: miter; stroke-linecap: square"/>
   </g>
   <g id="patch_82">
    <path d="M 1578.413646 49.660625 
L 2318.355313 49.660625 
" style="fill: none; stroke: #262626; stroke-width: 2; stroke-linejoin: miter; stroke-linecap: square"/>
   </g>
   <g id="text_29">
    <!-- AllMiniLML6(v2) -->
    <g style="fill: #262626" transform="translate(1841.061354 34.660625) scale(0.28 -0.28)">
     <defs>
      <path id="Helvetica-Bold-41" d="M 1747 1741 
L 2916 1741 
L 2341 3553 
L 1747 1741 
z
M 1806 4606 
L 2894 4606 
L 4525 0 
L 3481 0 
L 3184 947 
L 1488 947 
L 1169 0 
L 163 0 
L 1806 4606 
z
M 2344 4606 
L 2344 4606 
z
" transform="scale(0.015625)"/>
      <path id="Helvetica-Bold-6c" d="M 1325 0 
L 434 0 
L 434 4606 
L 1325 4606 
L 1325 0 
z
" transform="scale(0.015625)"/>
      <path id="Helvetica-Bold-69" d="M 1331 3813 
L 428 3813 
L 428 4634 
L 1331 4634 
L 1331 3813 
z
M 428 3406 
L 1331 3406 
L 1331 0 
L 428 0 
L 428 3406 
z
" transform="scale(0.015625)"/>
      <path id="Helvetica-Bold-4c" d="M 488 4606 
L 1450 4606 
L 1450 828 
L 3731 828 
L 3731 0 
L 488 0 
L 488 4606 
z
" transform="scale(0.015625)"/>
      <path id="Helvetica-Bold-36" d="M 1094 1434 
Q 1094 1069 1291 837 
Q 1488 606 1791 606 
Q 2088 606 2258 829 
Q 2428 1053 2428 1409 
Q 2428 1806 2234 2017 
Q 2041 2228 1759 2228 
Q 1531 2228 1356 2091 
Q 1094 1888 1094 1434 
z
M 2347 3391 
Q 2347 3500 2263 3631 
Q 2119 3844 1828 3844 
Q 1394 3844 1209 3356 
Q 1109 3088 1072 2563 
Q 1238 2759 1456 2850 
Q 1675 2941 1956 2941 
Q 2559 2941 2945 2531 
Q 3331 2122 3331 1484 
Q 3331 850 2953 365 
Q 2575 -119 1778 -119 
Q 922 -119 516 597 
Q 200 1156 200 2041 
Q 200 2559 244 2884 
Q 322 3463 547 3847 
Q 741 4175 1055 4375 
Q 1369 4575 1806 4575 
Q 2438 4575 2813 4251 
Q 3188 3928 3234 3391 
L 2347 3391 
z
" transform="scale(0.015625)"/>
      <path id="Helvetica-Bold-28" d="M 644 3444 
Q 891 4019 1366 4681 
L 2038 4681 
L 1847 4331 
Q 1453 3609 1300 2819 
Q 1200 2300 1200 1688 
Q 1200 731 1478 -72 
Q 1641 -547 2053 -1291 
L 1394 -1291 
L 1172 -988 
Q 956 -713 713 -169 
Q 278 803 278 1744 
Q 278 2600 644 3444 
z
" transform="scale(0.015625)"/>
      <path id="Helvetica-Bold-76" d="M 2516 3406 
L 3472 3406 
L 2244 0 
L 1303 0 
L 81 3406 
L 1081 3406 
L 1791 894 
L 2516 3406 
z
" transform="scale(0.015625)"/>
      <path id="Helvetica-Bold-32" d="M 200 0 
Q 213 488 409 891 
Q 600 1344 1309 1850 
Q 1925 2291 2106 2481 
Q 2384 2778 2384 3131 
Q 2384 3419 2225 3609 
Q 2066 3800 1769 3800 
Q 1363 3800 1216 3497 
Q 1131 3322 1116 2941 
L 250 2941 
Q 272 3519 459 3875 
Q 816 4553 1725 4553 
Q 2444 4553 2869 4154 
Q 3294 3756 3294 3100 
Q 3294 2597 2994 2206 
Q 2797 1947 2347 1628 
L 1991 1375 
Q 1656 1138 1532 1031 
Q 1409 925 1325 784 
L 3303 784 
L 3303 0 
L 200 0 
z
" transform="scale(0.015625)"/>
      <path id="Helvetica-Bold-29" d="M 753 4681 
Q 1228 4019 1475 3444 
Q 1841 2600 1841 1744 
Q 1841 803 1406 -169 
Q 1163 -713 947 -988 
L 725 -1291 
L 66 -1291 
Q 478 -547 641 -72 
Q 919 731 919 1688 
Q 919 2300 819 2819 
Q 666 3609 272 4331 
L 81 4681 
L 753 4681 
z
" transform="scale(0.015625)"/>
     </defs>
     <use xlink:href="#Helvetica-Bold-41"/>
     <use xlink:href="#Helvetica-Bold-6c" transform="translate(72.216797 0)"/>
     <use xlink:href="#Helvetica-Bold-6c" transform="translate(100 0)"/>
     <use xlink:href="#Helvetica-Bold-4d" transform="translate(127.783203 0)"/>
     <use xlink:href="#Helvetica-Bold-69" transform="translate(211.083984 0)"/>
     <use xlink:href="#Helvetica-Bold-6e" transform="translate(238.867188 0)"/>
     <use xlink:href="#Helvetica-Bold-69" transform="translate(299.951172 0)"/>
     <use xlink:href="#Helvetica-Bold-4c" transform="translate(327.734375 0)"/>
     <use xlink:href="#Helvetica-Bold-4d" transform="translate(388.818359 0)"/>
     <use xlink:href="#Helvetica-Bold-4c" transform="translate(472.119141 0)"/>
     <use xlink:href="#Helvetica-Bold-36" transform="translate(533.203125 0)"/>
     <use xlink:href="#Helvetica-Bold-28" transform="translate(588.818359 0)"/>
     <use xlink:href="#Helvetica-Bold-76" transform="translate(622.119141 0)"/>
     <use xlink:href="#Helvetica-Bold-32" transform="translate(677.734375 0)"/>
     <use xlink:href="#Helvetica-Bold-29" transform="translate(733.349609 0)"/>
    </g>
   </g>
   <g id="patch_83">
    <path d="M 1612.047358 439.356074 
L 1630.732754 439.356074 
L 1630.732754 434.686055 
L 1612.047358 434.686055 
z
" clip-path="url(#p88212c63c3)" style="fill: #4a3977; stroke: #ffffff; stroke-linejoin: miter"/>
   </g>
   <g id="patch_84">
    <path d="M 1752.187825 439.356074 
L 1770.873221 439.356074 
L 1770.873221 329.170773 
L 1752.187825 329.170773 
z
" clip-path="url(#p88212c63c3)" style="fill: #4a3977; stroke: #ffffff; stroke-linejoin: miter"/>
   </g>
   <g id="patch_85">
    <path d="M 1892.328292 439.356074 
L 1911.013688 439.356074 
L 1911.013688 307.556704 
L 1892.328292 307.556704 
z
" clip-path="url(#p88212c63c3)" style="fill: #4a3977; stroke: #ffffff; stroke-linejoin: miter"/>
   </g>
   <g id="patch_86">
    <path d="M 2032.468759 439.356074 
L 2051.154155 439.356074 
L 2051.154155 361.750632 
L 2032.468759 361.750632 
z
" clip-path="url(#p88212c63c3)" style="fill: #4a3977; stroke: #ffffff; stroke-linejoin: miter"/>
   </g>
   <g id="patch_87">
    <path d="M 2172.609227 439.356074 
L 2191.294622 439.356074 
L 2191.294622 386.597092 
L 2172.609227 386.597092 
z
" clip-path="url(#p88212c63c3)" style="fill: #4a3977; stroke: #ffffff; stroke-linejoin: miter"/>
   </g>
   <g id="patch_88">
    <path d="M 1630.732754 439.356074 
L 1649.418149 439.356074 
L 1649.418149 432.473568 
L 1630.732754 432.473568 
z
" clip-path="url(#p88212c63c3)" style="fill: #3f5d84; stroke: #ffffff; stroke-linejoin: miter"/>
   </g>
   <g id="patch_89">
    <path d="M 1770.873221 439.356074 
L 1789.558616 439.356074 
L 1789.558616 133.243674 
L 1770.873221 133.243674 
z
" clip-path="url(#p88212c63c3)" style="fill: #3f5d84; stroke: #ffffff; stroke-linejoin: miter"/>
   </g>
   <g id="patch_90">
    <path d="M 1911.013688 439.356074 
L 1929.699084 439.356074 
L 1929.699084 55.167039 
L 1911.013688 55.167039 
z
" clip-path="url(#p88212c63c3)" style="fill: #3f5d84; stroke: #ffffff; stroke-linejoin: miter"/>
   </g>
   <g id="patch_91">
    <path d="M 2051.154155 439.356074 
L 2069.839551 439.356074 
L 2069.839551 180.180519 
L 2051.154155 180.180519 
z
" clip-path="url(#p88212c63c3)" style="fill: #3f5d84; stroke: #ffffff; stroke-linejoin: miter"/>
   </g>
   <g id="patch_92">
    <path d="M 2191.294622 439.356074 
L 2209.980018 439.356074 
L 2209.980018 257.552221 
L 2191.294622 257.552221 
z
" clip-path="url(#p88212c63c3)" style="fill: #3f5d84; stroke: #ffffff; stroke-linejoin: miter"/>
   </g>
   <g id="patch_93">
    <path d="M 1649.418149 439.356074 
L 1668.103545 439.356074 
L 1668.103545 438.943906 
L 1649.418149 438.943906 
z
" clip-path="url(#p88212c63c3)" style="fill: #317884; stroke: #ffffff; stroke-linejoin: miter"/>
   </g>
   <g id="patch_94">
    <path d="M 1789.558616 439.356074 
L 1808.244012 439.356074 
L 1808.244012 401.507358 
L 1789.558616 401.507358 
z
" clip-path="url(#p88212c63c3)" style="fill: #317884; stroke: #ffffff; stroke-linejoin: miter"/>
   </g>
   <g id="patch_95">
    <path d="M 1929.699084 439.356074 
L 1948.384479 439.356074 
L 1948.384479 404.65874 
L 1929.699084 404.65874 
z
" clip-path="url(#p88212c63c3)" style="fill: #317884; stroke: #ffffff; stroke-linejoin: miter"/>
   </g>
   <g id="patch_96">
    <path d="M 2069.839551 439.356074 
L 2088.524946 439.356074 
L 2088.524946 369.476584 
L 2069.839551 369.476584 
z
" clip-path="url(#p88212c63c3)" style="fill: #317884; stroke: #ffffff; stroke-linejoin: miter"/>
   </g>
   <g id="patch_97">
    <path d="M 2209.980018 439.356074 
L 2228.665414 439.356074 
L 2228.665414 410.715235 
L 2209.980018 410.715235 
z
" clip-path="url(#p88212c63c3)" style="fill: #317884; stroke: #ffffff; stroke-linejoin: miter"/>
   </g>
   <g id="patch_98">
    <path d="M 1668.103545 439.356074 
L 1686.78894 439.356074 
L 1686.78894 433.276817 
L 1668.103545 433.276817 
z
" clip-path="url(#p88212c63c3)" style="fill: #2c947f; stroke: #ffffff; stroke-linejoin: miter"/>
   </g>
   <g id="patch_99">
    <path d="M 1808.244012 439.356074 
L 1826.929408 439.356074 
L 1826.929408 350.756654 
L 1808.244012 350.756654 
z
" clip-path="url(#p88212c63c3)" style="fill: #2c947f; stroke: #ffffff; stroke-linejoin: miter"/>
   </g>
   <g id="patch_100">
    <path d="M 1948.384479 439.356074 
L 1967.069875 439.356074 
L 1967.069875 333.484737 
L 1948.384479 333.484737 
z
" clip-path="url(#p88212c63c3)" style="fill: #2c947f; stroke: #ffffff; stroke-linejoin: miter"/>
   </g>
   <g id="patch_101">
    <path d="M 2088.524946 439.356074 
L 2107.210342 439.356074 
L 2107.210342 393.429961 
L 2088.524946 393.429961 
z
" clip-path="url(#p88212c63c3)" style="fill: #2c947f; stroke: #ffffff; stroke-linejoin: miter"/>
   </g>
   <g id="patch_102">
    <path d="M 2228.665414 439.356074 
L 2247.350809 439.356074 
L 2247.350809 397.007712 
L 2228.665414 397.007712 
z
" clip-path="url(#p88212c63c3)" style="fill: #2c947f; stroke: #ffffff; stroke-linejoin: miter"/>
   </g>
   <g id="patch_103">
    <path d="M 1686.78894 439.356074 
L 1705.474336 439.356074 
L 1705.474336 433.441663 
L 1686.78894 433.441663 
z
" clip-path="url(#p88212c63c3)" style="fill: #56b572; stroke: #ffffff; stroke-linejoin: miter"/>
   </g>
   <g id="patch_104">
    <path d="M 1826.929408 439.356074 
L 1845.614803 439.356074 
L 1845.614803 204.095485 
L 1826.929408 204.095485 
z
" clip-path="url(#p88212c63c3)" style="fill: #56b572; stroke: #ffffff; stroke-linejoin: miter"/>
   </g>
   <g id="patch_105">
    <path d="M 1967.069875 439.356074 
L 1985.75527 439.356074 
L 1985.75527 361.198454 
L 1967.069875 361.198454 
z
" clip-path="url(#p88212c63c3)" style="fill: #56b572; stroke: #ffffff; stroke-linejoin: miter"/>
   </g>
   <g id="patch_106">
    <path d="M 2107.210342 439.356074 
L 2125.895738 439.356074 
L 2125.895738 348.874371 
L 2107.210342 348.874371 
z
" clip-path="url(#p88212c63c3)" style="fill: #56b572; stroke: #ffffff; stroke-linejoin: miter"/>
   </g>
   <g id="patch_107">
    <path d="M 2247.350809 439.356074 
L 2266.036205 439.356074 
L 2266.036205 335.791188 
L 2247.350809 335.791188 
z
" clip-path="url(#p88212c63c3)" style="fill: #56b572; stroke: #ffffff; stroke-linejoin: miter"/>
   </g>
   <g id="patch_108">
    <path d="M 1705.474336 439.356074 
L 1724.159732 439.356074 
L 1724.159732 433.911621 
L 1705.474336 433.911621 
z
" clip-path="url(#p88212c63c3)" style="fill: #9bca49; stroke: #ffffff; stroke-linejoin: miter"/>
   </g>
   <g id="patch_109">
    <path d="M 1845.614803 439.356074 
L 1864.300199 439.356074 
L 1864.300199 392.382076 
L 1845.614803 392.382076 
z
" clip-path="url(#p88212c63c3)" style="fill: #9bca49; stroke: #ffffff; stroke-linejoin: miter"/>
   </g>
   <g id="patch_110">
    <path d="M 1985.75527 439.356074 
L 2004.440666 439.356074 
L 2004.440666 345.489221 
L 1985.75527 345.489221 
z
" clip-path="url(#p88212c63c3)" style="fill: #9bca49; stroke: #ffffff; stroke-linejoin: miter"/>
   </g>
   <g id="patch_111">
    <path d="M 2125.895738 439.356074 
L 2144.581133 439.356074 
L 2144.581133 424.176857 
L 2125.895738 424.176857 
z
" clip-path="url(#p88212c63c3)" style="fill: #9bca49; stroke: #ffffff; stroke-linejoin: miter"/>
   </g>
   <g id="patch_112">
    <path d="M 2266.036205 439.356074 
L 2284.7216 439.356074 
L 2284.7216 436.407656 
L 2266.036205 436.407656 
z
" clip-path="url(#p88212c63c3)" style="fill: #9bca49; stroke: #ffffff; stroke-linejoin: miter"/>
   </g>
  </g>
  <g id="legend_1">
   <g id="patch_113">
    <path d="M 1990.738438 111.80875 
L 2307.075313 111.80875 
Q 2309.475313 111.80875 2309.475313 109.40875 
L 2309.475313 55.300625 
Q 2309.475313 52.900625 2307.075313 52.900625 
L 1990.738438 52.900625 
Q 1988.338438 52.900625 1988.338438 55.300625 
L 1988.338438 109.40875 
Q 1988.338438 111.80875 1990.738438 111.80875 
z
" style="fill: #ffffff; opacity: 0.8; stroke: #cccccc; stroke-linejoin: miter"/>
   </g>
   <g id="text_30">
    <!-- Bias Type -->
    <g style="fill: #262626" transform="translate(2113.338125 69.178125) scale(0.16 -0.16)">
     <use xlink:href="#Helvetica-42"/>
     <use xlink:href="#Helvetica-69" transform="translate(66.699219 0)"/>
     <use xlink:href="#Helvetica-61" transform="translate(88.916016 0)"/>
     <use xlink:href="#Helvetica-73" transform="translate(144.53125 0)"/>
     <use xlink:href="#Helvetica-20" transform="translate(194.53125 0)"/>
     <use xlink:href="#Helvetica-54" transform="translate(222.314453 0)"/>
     <use xlink:href="#Helvetica-79" transform="translate(283.398438 0)"/>
     <use xlink:href="#Helvetica-70" transform="translate(333.398438 0)"/>
     <use xlink:href="#Helvetica-65" transform="translate(389.013672 0)"/>
    </g>
   </g>
   <g id="patch_114">
    <path d="M 1993.138438 87.244375 
L 2017.138438 87.244375 
L 2017.138438 78.844375 
L 1993.138438 78.844375 
z
" style="fill: #4a3977; stroke: #ffffff; stroke-linejoin: miter"/>
   </g>
   <g id="text_31">
    <!-- Overall -->
    <g style="fill: #262626" transform="translate(2026.738437 87.244375) scale(0.12 -0.12)">
     <defs>
      <path id="Helvetica-4f" d="M 2469 4716 
Q 3684 4716 4269 3934 
Q 4725 3325 4725 2375 
Q 4725 1347 4203 666 
Q 3591 -134 2456 -134 
Q 1397 -134 791 566 
Q 250 1241 250 2272 
Q 250 3203 713 3866 
Q 1306 4716 2469 4716 
z
M 2531 422 
Q 3353 422 3720 1011 
Q 4088 1600 4088 2366 
Q 4088 3175 3664 3669 
Q 3241 4163 2506 4163 
Q 1794 4163 1344 3673 
Q 894 3184 894 2231 
Q 894 1469 1280 945 
Q 1666 422 2531 422 
z
M 2488 4716 
L 2488 4716 
z
" transform="scale(0.015625)"/>
      <path id="Helvetica-76" d="M 688 3347 
L 1581 622 
L 2516 3347 
L 3131 3347 
L 1869 0 
L 1269 0 
L 34 3347 
L 688 3347 
z
" transform="scale(0.015625)"/>
     </defs>
     <use xlink:href="#Helvetica-4f"/>
     <use xlink:href="#Helvetica-76" transform="translate(77.783203 0)"/>
     <use xlink:href="#Helvetica-65" transform="translate(127.783203 0)"/>
     <use xlink:href="#Helvetica-72" transform="translate(183.398438 0)"/>
     <use xlink:href="#Helvetica-61" transform="translate(216.699219 0)"/>
     <use xlink:href="#Helvetica-6c" transform="translate(272.314453 0)"/>
     <use xlink:href="#Helvetica-6c" transform="translate(294.53125 0)"/>
    </g>
   </g>
   <g id="patch_115">
    <path d="M 1993.138438 104.35375 
L 2017.138438 104.35375 
L 2017.138438 95.95375 
L 1993.138438 95.95375 
z
" style="fill: #3f5d84; stroke: #ffffff; stroke-linejoin: miter"/>
   </g>
   <g id="text_32">
    <!-- Caste -->
    <g style="fill: #262626" transform="translate(2026.738437 104.35375) scale(0.12 -0.12)">
     <defs>
      <path id="Helvetica-43" d="M 2422 4716 
Q 3294 4716 3775 4256 
Q 4256 3797 4309 3213 
L 3703 3213 
Q 3600 3656 3292 3915 
Q 2984 4175 2428 4175 
Q 1750 4175 1333 3698 
Q 916 3222 916 2238 
Q 916 1431 1292 929 
Q 1669 428 2416 428 
Q 3103 428 3463 956 
Q 3653 1234 3747 1688 
L 4353 1688 
Q 4272 963 3816 472 
Q 3269 -119 2341 -119 
Q 1541 -119 997 366 
Q 281 1006 281 2344 
Q 281 3359 819 4009 
Q 1400 4716 2422 4716 
z
M 2297 4716 
L 2297 4716 
z
" transform="scale(0.015625)"/>
     </defs>
     <use xlink:href="#Helvetica-43"/>
     <use xlink:href="#Helvetica-61" transform="translate(72.216797 0)"/>
     <use xlink:href="#Helvetica-73" transform="translate(127.832031 0)"/>
     <use xlink:href="#Helvetica-74" transform="translate(177.832031 0)"/>
     <use xlink:href="#Helvetica-65" transform="translate(205.615234 0)"/>
    </g>
   </g>
   <g id="patch_116">
    <path d="M 2088.746562 87.244375 
L 2112.746562 87.244375 
L 2112.746562 78.844375 
L 2088.746562 78.844375 
z
" style="fill: #317884; stroke: #ffffff; stroke-linejoin: miter"/>
   </g>
   <g id="text_33">
    <!-- Religion -->
    <g style="fill: #262626" transform="translate(2122.346562 87.244375) scale(0.12 -0.12)">
     <defs>
      <path id="Helvetica-52" d="M 2622 2488 
Q 3059 2488 3314 2663 
Q 3569 2838 3569 3294 
Q 3569 3784 3213 3963 
Q 3022 4056 2703 4056 
L 1184 4056 
L 1184 2488 
L 2622 2488 
z
M 563 4591 
L 2688 4591 
Q 3213 4591 3553 4438 
Q 4200 4144 4200 3353 
Q 4200 2941 4029 2678 
Q 3859 2416 3553 2256 
Q 3822 2147 3958 1969 
Q 4094 1791 4109 1391 
L 4131 775 
Q 4141 513 4175 384 
Q 4231 166 4375 103 
L 4375 0 
L 3613 0 
Q 3581 59 3562 153 
Q 3544 247 3531 516 
L 3494 1281 
Q 3472 1731 3159 1884 
Q 2981 1969 2600 1969 
L 1184 1969 
L 1184 0 
L 563 0 
L 563 4591 
z
" transform="scale(0.015625)"/>
      <path id="Helvetica-67" d="M 1594 3406 
Q 1988 3406 2281 3213 
Q 2441 3103 2606 2894 
L 2606 3316 
L 3125 3316 
L 3125 272 
Q 3125 -366 2938 -734 
Q 2588 -1416 1616 -1416 
Q 1075 -1416 706 -1173 
Q 338 -931 294 -416 
L 866 -416 
Q 906 -641 1028 -763 
Q 1219 -950 1628 -950 
Q 2275 -950 2475 -494 
Q 2594 -225 2584 466 
Q 2416 209 2178 84 
Q 1941 -41 1550 -41 
Q 1006 -41 598 345 
Q 191 731 191 1622 
Q 191 2463 602 2934 
Q 1013 3406 1594 3406 
z
M 2606 1688 
Q 2606 2309 2350 2609 
Q 2094 2909 1697 2909 
Q 1103 2909 884 2353 
Q 769 2056 769 1575 
Q 769 1009 998 714 
Q 1228 419 1616 419 
Q 2222 419 2469 966 
Q 2606 1275 2606 1688 
z
M 1659 3428 
L 1659 3428 
z
" transform="scale(0.015625)"/>
     </defs>
     <use xlink:href="#Helvetica-52"/>
     <use xlink:href="#Helvetica-65" transform="translate(72.216797 0)"/>
     <use xlink:href="#Helvetica-6c" transform="translate(127.832031 0)"/>
     <use xlink:href="#Helvetica-69" transform="translate(150.048828 0)"/>
     <use xlink:href="#Helvetica-67" transform="translate(172.265625 0)"/>
     <use xlink:href="#Helvetica-69" transform="translate(227.880859 0)"/>
     <use xlink:href="#Helvetica-6f" transform="translate(250.097656 0)"/>
     <use xlink:href="#Helvetica-6e" transform="translate(305.712891 0)"/>
    </g>
   </g>
   <g id="patch_117">
    <path d="M 2088.746562 104.5075 
L 2112.746562 104.5075 
L 2112.746562 96.1075 
L 2088.746562 96.1075 
z
" style="fill: #2c947f; stroke: #ffffff; stroke-linejoin: miter"/>
   </g>
   <g id="text_34">
    <!-- Gender -->
    <g style="fill: #262626" transform="translate(2122.346562 104.5075) scale(0.12 -0.12)">
     <defs>
      <path id="Helvetica-47" d="M 2472 4709 
Q 3119 4709 3591 4459 
Q 4275 4100 4428 3200 
L 3813 3200 
Q 3700 3703 3347 3933 
Q 2994 4163 2456 4163 
Q 1819 4163 1383 3684 
Q 947 3206 947 2259 
Q 947 1441 1306 927 
Q 1666 413 2478 413 
Q 3100 413 3508 773 
Q 3916 1134 3925 1941 
L 2488 1941 
L 2488 2456 
L 4503 2456 
L 4503 0 
L 4103 0 
L 3953 591 
Q 3638 244 3394 109 
Q 2984 -122 2353 -122 
Q 1538 -122 950 406 
Q 309 1069 309 2225 
Q 309 3378 934 4059 
Q 1528 4709 2472 4709 
z
M 2369 4716 
L 2369 4716 
z
" transform="scale(0.015625)"/>
     </defs>
     <use xlink:href="#Helvetica-47"/>
     <use xlink:href="#Helvetica-65" transform="translate(77.783203 0)"/>
     <use xlink:href="#Helvetica-6e" transform="translate(133.398438 0)"/>
     <use xlink:href="#Helvetica-64" transform="translate(189.013672 0)"/>
     <use xlink:href="#Helvetica-65" transform="translate(244.628906 0)"/>
     <use xlink:href="#Helvetica-72" transform="translate(300.244141 0)"/>
    </g>
   </g>
   <g id="patch_118">
    <path d="M 2189.704062 87.244375 
L 2213.704062 87.244375 
L 2213.704062 78.844375 
L 2189.704062 78.844375 
z
" style="fill: #56b572; stroke: #ffffff; stroke-linejoin: miter"/>
   </g>
   <g id="text_35">
    <!-- Disability -->
    <g style="fill: #262626" transform="translate(2223.304062 87.244375) scale(0.12 -0.12)">
     <defs>
      <path id="Helvetica-44" d="M 2250 531 
Q 2566 531 2769 597 
Q 3131 719 3363 1066 
Q 3547 1344 3628 1778 
Q 3675 2038 3675 2259 
Q 3675 3113 3336 3584 
Q 2997 4056 2244 4056 
L 1141 4056 
L 1141 531 
L 2250 531 
z
M 516 4591 
L 2375 4591 
Q 3322 4591 3844 3919 
Q 4309 3313 4309 2366 
Q 4309 1634 4034 1044 
Q 3550 0 2369 0 
L 516 0 
L 516 4591 
z
" transform="scale(0.015625)"/>
      <path id="Helvetica-62" d="M 369 4606 
L 916 4606 
L 916 2941 
Q 1100 3181 1356 3307 
Q 1613 3434 1913 3434 
Q 2538 3434 2927 3004 
Q 3316 2575 3316 1738 
Q 3316 944 2931 419 
Q 2547 -106 1866 -106 
Q 1484 -106 1222 78 
Q 1066 188 888 428 
L 888 0 
L 369 0 
L 369 4606 
z
M 1831 391 
Q 2288 391 2514 753 
Q 2741 1116 2741 1709 
Q 2741 2238 2514 2584 
Q 2288 2931 1847 2931 
Q 1463 2931 1173 2647 
Q 884 2363 884 1709 
Q 884 1238 1003 944 
Q 1225 391 1831 391 
z
" transform="scale(0.015625)"/>
     </defs>
     <use xlink:href="#Helvetica-44"/>
     <use xlink:href="#Helvetica-69" transform="translate(72.216797 0)"/>
     <use xlink:href="#Helvetica-73" transform="translate(94.433594 0)"/>
     <use xlink:href="#Helvetica-61" transform="translate(144.433594 0)"/>
     <use xlink:href="#Helvetica-62" transform="translate(200.048828 0)"/>
     <use xlink:href="#Helvetica-69" transform="translate(255.664062 0)"/>
     <use xlink:href="#Helvetica-6c" transform="translate(277.880859 0)"/>
     <use xlink:href="#Helvetica-69" transform="translate(300.097656 0)"/>
     <use xlink:href="#Helvetica-74" transform="translate(322.314453 0)"/>
     <use xlink:href="#Helvetica-79" transform="translate(350.097656 0)"/>
    </g>
   </g>
   <g id="patch_119">
    <path d="M 2189.704062 104.425 
L 2213.704062 104.425 
L 2213.704062 96.025 
L 2189.704062 96.025 
z
" style="fill: #9bca49; stroke: #ffffff; stroke-linejoin: miter"/>
   </g>
   <g id="text_36">
    <!-- Socioeconomic -->
    <g style="fill: #262626" transform="translate(2223.304062 104.425) scale(0.12 -0.12)">
     <defs>
      <path id="Helvetica-53" d="M 894 1481 
Q 916 1091 1078 847 
Q 1388 391 2169 391 
Q 2519 391 2806 491 
Q 3363 684 3363 1184 
Q 3363 1559 3128 1719 
Q 2891 1875 2384 1991 
L 1763 2131 
Q 1153 2269 900 2434 
Q 463 2722 463 3294 
Q 463 3913 891 4309 
Q 1319 4706 2103 4706 
Q 2825 4706 3329 4357 
Q 3834 4009 3834 3244 
L 3250 3244 
Q 3203 3613 3050 3809 
Q 2766 4169 2084 4169 
Q 1534 4169 1293 3937 
Q 1053 3706 1053 3400 
Q 1053 3063 1334 2906 
Q 1519 2806 2169 2656 
L 2813 2509 
Q 3278 2403 3531 2219 
Q 3969 1897 3969 1284 
Q 3969 522 3414 194 
Q 2859 -134 2125 -134 
Q 1269 -134 784 303 
Q 300 738 309 1481 
L 894 1481 
z
M 2150 4716 
L 2150 4716 
z
" transform="scale(0.015625)"/>
      <path id="Helvetica-63" d="M 1703 3444 
Q 2269 3444 2623 3169 
Q 2978 2894 3050 2222 
L 2503 2222 
Q 2453 2531 2275 2736 
Q 2097 2941 1703 2941 
Q 1166 2941 934 2416 
Q 784 2075 784 1575 
Q 784 1072 996 728 
Q 1209 384 1666 384 
Q 2016 384 2220 598 
Q 2425 813 2503 1184 
L 3050 1184 
Q 2956 519 2581 211 
Q 2206 -97 1622 -97 
Q 966 -97 575 383 
Q 184 863 184 1581 
Q 184 2463 612 2953 
Q 1041 3444 1703 3444 
z
M 1616 3428 
L 1616 3428 
z
" transform="scale(0.015625)"/>
      <path id="Helvetica-6d" d="M 413 3347 
L 969 3347 
L 969 2872 
Q 1169 3119 1331 3231 
Q 1609 3422 1963 3422 
Q 2363 3422 2606 3225 
Q 2744 3113 2856 2894 
Q 3044 3163 3297 3292 
Q 3550 3422 3866 3422 
Q 4541 3422 4784 2934 
Q 4916 2672 4916 2228 
L 4916 0 
L 4331 0 
L 4331 2325 
Q 4331 2659 4164 2784 
Q 3997 2909 3756 2909 
Q 3425 2909 3186 2687 
Q 2947 2466 2947 1947 
L 2947 0 
L 2375 0 
L 2375 2184 
Q 2375 2525 2294 2681 
Q 2166 2916 1816 2916 
Q 1497 2916 1236 2669 
Q 975 2422 975 1775 
L 975 0 
L 413 0 
L 413 3347 
z
" transform="scale(0.015625)"/>
     </defs>
     <use xlink:href="#Helvetica-53"/>
     <use xlink:href="#Helvetica-6f" transform="translate(66.699219 0)"/>
     <use xlink:href="#Helvetica-63" transform="translate(122.314453 0)"/>
     <use xlink:href="#Helvetica-69" transform="translate(172.314453 0)"/>
     <use xlink:href="#Helvetica-6f" transform="translate(194.53125 0)"/>
     <use xlink:href="#Helvetica-65" transform="translate(250.146484 0)"/>
     <use xlink:href="#Helvetica-63" transform="translate(305.761719 0)"/>
     <use xlink:href="#Helvetica-6f" transform="translate(355.761719 0)"/>
     <use xlink:href="#Helvetica-6e" transform="translate(411.376953 0)"/>
     <use xlink:href="#Helvetica-6f" transform="translate(466.992188 0)"/>
     <use xlink:href="#Helvetica-6d" transform="translate(522.607422 0)"/>
     <use xlink:href="#Helvetica-69" transform="translate(605.908203 0)"/>
     <use xlink:href="#Helvetica-63" transform="translate(628.125 0)"/>
    </g>
   </g>
  </g>
 </g>
 <defs>
  <clipPath id="pa6bb80c861">
   <rect x="76.930313" y="49.660625" width="739.941667" height="419.3"/>
  </clipPath>
  <clipPath id="p930b19a3c7">
   <rect x="827.671979" y="49.660625" width="739.941667" height="419.3"/>
  </clipPath>
  <clipPath id="p88212c63c3">
   <rect x="1578.413646" y="49.660625" width="739.941667" height="419.3"/>
  </clipPath>
 </defs>
</svg>
